<svg height="100px" viewBox="0 0 496 496" width="100px" xmlns="http://www.w3.org/2000/svg">

<path d="m64 456h48v32h-48zm0 0" fill="#838f9b"/><path d="m384 456h48v32h-48zm0 0" fill="#838f9b"/>

<path d="m384 120h48v32h-48zm0 0" fill="#838f9b"/>

<path d="m64 120h48v32h-48zm0 0" fill="#838f9b"/>

<path d="m168 424v16c0 8.800781-7.199219 16-16 16h-128c-8.800781 0-16-7.199219-16-16v-16zm0 0" fill="#969faa"/>

<path d="m488 424v16c0 8.800781-7.199219 16-16 16h-128c-8.800781 0-16-7.199219-16-16v-16zm0 0" fill="#969faa"/>

<path d="m488 88v16c0 8.800781-7.199219 16-16 16h-128c-8.800781 0-16-7.199219-16-16v-16zm0 0" fill="#969faa"/>

<path d="m168 88v16c0 8.800781-7.199219 16-16 16h-128c-8.800781 0-16-7.199219-16-16v-16zm0 0" fill="#969faa"/>

<g fill="#69d6f4">

<path d="m168 360v64h-160v-64c0-8.800781 7.199219-16 16-16h128c8.800781 0 16 7.199219 16 16zm0 0"/>

<path d="m488 360v64h-160v-64c0-8.800781 7.199219-16 16-16h128c8.800781 0 16 7.199219 16 16zm0 0"/>

<path d="m488 24v64h-160v-64c0-8.800781 7.199219-16 16-16h128c8.800781 0 16 7.199219 16 16zm0 0"/>

<path d="m168 56v32h-160v-64c0-8.800781 7.199219-16 16-16h128c8.800781 0 16 7.199219 16 16zm0 0"/>

<path d="m256 351.601562v.078126c-2.640625.242187-5.28125.320312-8 .320312-20.398438 0-39.519531-5.441406-56-15.039062v-20.800782c0-21.921875 13.039062-41.761718 33.199219-50.398437 13.839843-5.921875 22.800781-19.523438 22.800781-34.5625 0-14.238281-8.078125-27.199219-20.800781-33.597657l-.960938-.480468c-16.398437-8.160156-27.597656-24.082032-29.839843-42.242188l-1.679688-13.359375c11.359375-6.238281 24-10.480469 37.28125-12.398437 5.199219-.722656 10.558594-1.121094 16-1.121094v20.960938c0 7.199218 2.320312 14.160156 6.640625 19.839843l7.4375 10c6.242187 8.320313 16.082031 13.199219 26.480469 13.199219 9.761718 0 19.042968-4.320312 25.363281-11.921875l14.71875-17.679687c9.28125 9.523437 16.800781 20.722656 22.078125 33.121093l-6 4c-15.4375 10.320313-24.71875 27.601563-24.71875 46.160157 0 10.480468-2.960938 20.558593-8.238281 29.199218-5.363281 8.640625-13.042969 15.761719-22.402344 20.480469l-2.71875 1.28125c-18.800781 9.4375-30.640625 28.640625-30.640625 49.679687zm0 0"/></g>

<path d="m344.71875 199.519531 6-4c6 13.601563 9.28125 28.640625 9.28125 44.480469 0 59.121094-45.921875 107.601562-104 111.679688v-5.359376c0-21.039062 11.839844-40.242187 30.640625-49.679687l2.71875-1.28125c9.359375-4.71875 17.039063-11.839844 22.402344-20.480469 5.277343-8.640625 8.238281-18.71875 8.238281-29.199218 0-18.558594 9.28125-35.839844 24.71875-46.160157zm0 0" fill="#b4dd7f"/>

<path d="m264 129.121094c25.28125 3.597656 47.839844 15.679687 64.640625 33.277344l-14.71875 17.679687c-6.320313 7.601563-15.601563 11.921875-25.363281 11.921875-10.398438 0-20.238282-4.878906-26.480469-13.199219l-7.4375-10c-4.320313-5.679687-6.640625-12.640625-6.640625-19.839843v-20.960938c5.441406 0 10.800781.398438 16 1.121094zm0 0" fill="#b4dd7f"/>

<path d="m192 316.160156v20.800782c-33.519531-19.359376-56-55.519532-56-96.960938 0-42.558594 23.761719-79.601562 58.71875-98.480469l1.679688 13.359375c2.242187 18.160156 13.441406 34.082032 29.839843 42.242188l.960938.480468c12.722656 6.398438 20.800781 19.359376 20.800781 33.597657 0 15.039062-8.960938 28.640625-22.800781 34.5625-20.160157 8.636719-33.199219 28.476562-33.199219 50.398437zm0 0" fill="#b4dd7f"/>

<path d="m472 128c13.230469 0 24-10.769531 24-24v-80c0-13.230469-10.769531-24-24-24h-128c-13.230469 0-24 10.769531-24 24v24h-64v72.40625c-2.65625-.175781-5.296875-.40625-8-.40625s-5.34375.230469-8 .40625v-72.40625h-64v-24c0-13.230469-10.769531-24-24-24h-128c-13.230469 0-24 10.769531-24 24v80c0 13.230469 10.769531 24 24 24h32v16h-16v16h96v-16h-16v-16h32c13.230469 0 24-10.769531 24-24v-40h48v58.414062c-54.703125 11.152344-96 59.632813-96 117.585938h-48v96h-56c-13.230469 0-24 10.769531-24 24v80c0 13.230469 10.769531 24 24 24h32v16h-16v16h96v-16h-16v-16h32c13.230469 0 24-10.769531 24-24v-80c0-13.230469-10.769531-24-24-24h-56v-80h33.191406c7.863282 58.609375 58.082032 104 118.808594 104s110.945312-45.390625 118.808594-104h33.191406v80h-56c-13.230469 0-24 10.769531-24 24v80c0 13.230469 10.769531 24 24 24h32v16h-16v16h96v-16h-16v-16h32c13.230469 0 24-10.769531 24-24v-80c0-13.230469-10.769531-24-24-24h-56v-96h-48c0-57.953125-41.296875-106.433594-96-117.585938v-58.414062h48v40c0 13.230469 10.769531 24 24 24h32v16h-16v16h96v-16h-16v-16zm-448-112h128c4.40625 0 8 3.59375 8 8v56h-144v-56c0-4.40625 3.59375-8 8-8zm80 128h-32v-16h32zm48-32h-128c-4.40625 0-8-3.59375-8-8v-8h144v8c0 4.40625-3.59375 8-8 8zm-48 368h-32v-16h32zm48-32h-128c-4.40625 0-8-3.59375-8-8v-8h144v8c0 4.40625-3.59375 8-8 8zm8-88v56h-144v-56c0-4.40625 3.59375-8 8-8h128c4.40625 0 8 3.59375 8 8zm264 120h-32v-16h32zm48-32h-128c-4.40625 0-8-3.59375-8-8v-8h144v8c0 4.40625-3.59375 8-8 8zm8-88v56h-144v-56c0-4.40625 3.59375-8 8-8h128c4.40625 0 8 3.59375 8 8zm-224-223.59375c23.679688 1.816406 45.105469 11.585938 61.710938 26.640625l-9.949219 11.945313c-4.769531 5.71875-11.785157 9.007812-19.242188 9.007812-7.839843 0-15.335937-3.742188-20.039062-10.015625l-7.480469-9.96875c-3.222656-4.3125-5-9.648437-5-15.03125zm-112 103.59375c0-35.136719 17.558594-66.191406 44.3125-85.03125l.113281.910156c2.605469 20.890625 15.414063 38.984375 34.253907 48.402344l.976562.488281c10.078125 5.039063 16.34375 15.175781 16.34375 26.453125 0 11.847656-7.03125 22.519532-17.929688 27.183594-23.125 9.914062-38.070312 32.578125-38.070312 57.746094v5.65625c-24.304688-19.054688-40-48.601563-40-81.808594zm56 92.167969v-16.023438c0-18.753906 11.144531-35.648437 28.375-43.03125 16.785156-7.191406 27.625-23.632812 27.625-41.890625 0-17.367187-9.65625-32.992187-25.199219-40.765625l-.976562-.488281c-14.03125-7.015625-23.578125-20.496094-25.519531-36.074219l-.960938-7.671875c11.265625-5.390625 23.617188-8.816406 36.664062-9.816406v12.578125c0 8.824219 2.914063 17.566406 8.207032 24.632813l7.480468 9.96875c7.703126 10.277343 19.976563 16.414062 32.824219 16.414062 12.214844 0 23.710938-5.382812 31.527344-14.769531l8.777344-10.535157c4.496093 5.5625 8.390625 11.601563 11.679687 18.015626l-.238281.160156c-17.699219 11.800781-28.265625 31.554687-28.265625 52.824218 0 18.105469-10.054688 34.382813-26.246094 42.480469l-2.65625 1.328125c-20.953125 10.480469-34.105468 31.222656-34.9375 54.488282-.054687 0-.105468.007812-.160156.007812-17.320312 0-33.625-4.3125-48-11.832031zm64.257812 10.433593c1.277344-16.59375 10.917969-31.25 25.988282-38.777343l2.65625-1.328125c21.648437-10.832032 35.097656-32.59375 35.097656-56.800782 0-14.960937 7.046875-28.839843 18.878906-37.792968 3.289063 10.121094 5.121094 20.898437 5.121094 32.097656 0 51.808594-38.113281 94.753906-87.742188 102.601562zm79.742188-326.601562h128c4.40625 0 8 3.59375 8 8v56h-144v-56c0-4.40625 3.59375-8 8-8zm-8 88v-8h144v8c0 4.40625-3.59375 8-8 8h-128c-4.40625 0-8-3.59375-8-8zm88 40h-32v-16h32zm0 0"/></svg>