<svg height="100px" viewBox="0 0 496 496" width="100px" xmlns="http://www.w3.org/2000/svg"><path d="m184 328c0 8.835938-7.164062 16-16 16s-16-7.164062-16-16 7.164062-16 16-16 16 7.164062 16 16zm0 0" fill="#fcd770"/><path d="m352 456h64v32h-64zm0 0" fill="#838f9b"/><path d="m80 200h64v32h-64zm0 0" fill="#838f9b"/><path d="m488 424v16c0 8.800781-7.199219 16-16 16h-176c-8.800781 0-16-7.199219-16-16v-16zm0 0" fill="#969faa"/><path d="m216 168v16c0 8.800781-7.199219 16-16 16h-176c-8.800781 0-16-7.199219-16-16v-16zm0 0" fill="#969faa"/><g fill="#69d6f4"><path d="m488 328v96h-208v-96c0-8.800781 7.199219-16 16-16h176c8.800781 0 16 7.199219 16 16zm0 0"/><path d="m216 72v96h-208v-96c0-8.800781 7.199219-16 16-16h176c8.800781 0 16 7.199219 16 16zm0 0"/><path d="m484.480469 156.480469h.078125c-4.878906 20.238281-14.957032 38.398437-28.636719 53.121093l-.082031-.082031c-.640625-16.640625-8.640625-32.160156-22-42.160156-6.398438-4.800781-14.160156-7.359375-22.078125-7.359375-8.242188 0-15.921875 2.71875-22.160157 7.441406-6.242187 4.636719-10.960937 11.277344-13.203124 19.199219-5.597657 19.519531-8.398438 39.597656-8.398438 59.839844v1.519531c-15.121094 0-29.679688-2.800781-43.039062-8l.078124-.078125c6.640626-5.84375 10.960938-14.320313 10.960938-23.921875v-25.839844c0-8.800781-4.640625-16.960937-12.160156-21.441406l-9.121094-5.4375c-11.597656-7.042969-18.71875-19.601562-18.71875-33.121094 0-15.839844 9.601562-30 24.238281-35.839844 9.523438-3.839843 15.761719-13.039062 15.761719-23.28125 0-18.878906-6.320312-37.199218-17.761719-52.160156 15.121094-7.039062 32-10.878906 49.761719-10.878906v18.640625c0 13.359375 6.640625 25.839844 17.761719 33.199219l12.476562 8.320312c11.121094 7.359375 17.761719 19.839844 17.761719 33.199219 0 8.082031 2.398438 15.761719 6.71875 22.160156 4.242188 6.402344 10.402344 11.601563 17.839844 14.71875zm0 0"/></g><path d="m433.839844 167.359375c13.359375 10 21.359375 25.519531 22 42.160156l.082031.082031c-21.921875 23.597657-53.203125 38.398438-87.921875 38.398438v-1.519531c0-20.242188 2.800781-40.320313 8.398438-59.839844 2.242187-7.921875 6.960937-14.5625 13.203124-19.199219 6.238282-4.722656 13.917969-7.441406 22.160157-7.441406 7.917969 0 15.679687 2.558594 22.078125 7.359375zm0 0" fill="#b4dd7f"/><path d="m488 128c0 9.839844-1.199219 19.359375-3.441406 28.480469h-.078125l-43.921875-18.242188c-7.4375-3.117187-13.597656-8.316406-17.839844-14.71875-4.320312-6.398437-6.71875-14.078125-6.71875-22.160156 0-13.359375-6.640625-25.839844-17.761719-33.199219l-12.476562-8.320312c-11.121094-7.359375-17.761719-19.839844-17.761719-33.199219v-18.640625c66.238281 0 120 53.761719 120 120zm0 0" fill="#b4dd7f"/><path d="m336 190.160156v25.839844c0 9.601562-4.320312 18.078125-10.960938 23.921875l-.078124.078125c-44.960938-17.28125-76.960938-60.878906-76.960938-112 0-48.480469 28.800781-90.320312 70.238281-109.121094 11.441407 14.960938 17.761719 33.28125 17.761719 52.160156 0 10.242188-6.238281 19.441407-15.761719 23.28125-14.636719 5.839844-24.238281 20-24.238281 35.839844 0 13.519532 7.121094 26.078125 18.71875 33.121094l9.121094 5.4375c7.519531 4.480469 12.160156 12.640625 12.160156 21.441406zm0 0" fill="#b4dd7f"/><path d="m472 304h-80v-50.335938c59.136719-11.273437 104-63.296874 104-125.664062 0-70.574219-57.425781-128-128-128h-264v48h-80c-13.230469 0-24 10.769531-24 24v112c0 13.230469 10.769531 24 24 24h48v16h-16v16h112v-16h-16v-16h48c13.230469 0 24-10.769531 24-24v-112c0-13.230469-10.769531-24-24-24h-80v-32h186.167969c-39.40625 21.847656-66.167969 63.839844-66.167969 112 0 70.574219 57.425781 128 128 128 2.703125 0 5.34375-.238281 8-.40625v48.40625h-80c-13.230469 0-24 10.769531-24 24v112c0 13.230469 10.769531 24 24 24h48v16h-16v16h112v-16h-16v-16h48c13.230469 0 24-10.769531 24-24v-112c0-13.230469-10.769531-24-24-24zm-336-80h-48v-16h48zm64-32h-176c-4.40625 0-8-3.585938-8-8v-8h192v8c0 4.414062-3.59375 8-8 8zm8-120v88h-192v-88c0-4.414062 3.59375-8 8-8h176c4.40625 0 8 3.585938 8 8zm119.96875 89.847656-9.105469-5.464844c-9.167969-5.503906-14.863281-15.550781-14.863281-26.238281 0-12.585937 7.550781-23.746093 19.238281-28.425781 12.609375-5.039062 20.761719-17.078125 20.761719-30.664062 0-16.984376-4.832031-33.808594-13.640625-48.40625 9.375-3.359376 19.304687-5.503907 29.640625-6.242188v10.21875c0 16.070312 7.984375 30.984375 21.34375 39.886719l12.433594 8.28125c8.902344 5.941406 14.222656 15.871093 14.222656 26.582031 0 19.417969 11.574219 36.785156 29.503906 44.25l37.464844 15.605469c-3.351562 10.761719-8.304688 20.808593-14.542969 29.914062-4.058593-11.914062-11.515625-22.464843-21.816406-30.191406-7.699219-5.777344-17.242187-8.953125-26.867187-8.953125-19.886719 0-37.589844 13.351562-43.054688 32.480469-5.136719 17.96875-7.878906 36.480469-8.449219 55.128906-7.453125-.511719-14.695312-1.753906-21.679687-3.664063 3.519531-6.023437 5.441406-12.890624 5.441406-19.945312v-25.832031c0-11.527344-6.144531-22.375-16.03125-28.320313zm48.269531 77.738282c.570313-17.152344 3.113281-34.1875 7.832031-50.714844 3.515626-12.296875 14.890626-20.871094 27.671876-20.871094 6.1875 0 12.320312 2.039062 17.265624 5.753906 10.578126 7.933594 17.183594 19.820313 18.566407 32.941406-18.496094 18.703126-43.527344 30.847657-71.335938 32.890626zm103.761719-111.585938c0 5.929688-.601562 11.703125-1.488281 17.375l-34.855469-14.519531c-11.945312-4.976563-19.65625-16.550781-19.65625-29.480469 0-16.070312-7.984375-30.984375-21.34375-39.886719l-12.433594-8.289062c-8.902344-5.933594-14.222656-15.863281-14.222656-26.574219v-10.21875c58.023438 4.128906 104 52.539062 104 111.59375zm-224 0c0-42.832031 24.191406-80.078125 59.601562-98.921875 8.03125 12.523437 12.398438 27.203125 12.398438 41.976563 0 7.007812-4.199219 13.210937-10.703125 15.808593-17.792969 7.121094-29.296875 24.113281-29.296875 43.28125 0 16.269531 8.671875 31.582031 22.632812 39.96875l9.101563 5.460938c5.097656 3.058593 8.265625 8.648437 8.265625 14.59375v25.832031c0 5.320312-1.785156 10.3125-5.03125 14.472656-39.382812-17.375-66.96875-56.738281-66.96875-102.472656zm40 192h176c4.40625 0 8 3.585938 8 8v88h-192v-88c0-4.414062 3.59375-8 8-8zm112 160h-48v-16h48zm64-32h-176c-4.40625 0-8-3.585938-8-8v-8h192v8c0 4.414062-3.59375 8-8 8zm0 0"/><path d="m192 328c0-13.230469-10.769531-24-24-24s-24 10.769531-24 24 10.769531 24 24 24 24-10.769531 24-24zm-32 0c0-4.414062 3.59375-8 8-8s8 3.585938 8 8-3.59375 8-8 8-8-3.585938-8-8zm0 0"/><path d="m128.398438 288.40625c-10.574219 10.578125-16.398438 24.632812-16.398438 39.59375s5.824219 29.015625 16.398438 39.59375c10.578124 10.574219 24.640624 16.40625 39.601562 16.40625s29.015625-5.832031 39.601562-16.40625l-11.3125-11.3125c-7.5625 7.550781-17.609374 11.71875-28.289062 11.71875s-20.726562-4.167969-28.289062-11.71875c-7.558594-7.554688-11.710938-17.601562-11.710938-28.28125s4.160156-20.726562 11.710938-28.28125zm0 0"/><path d="m117.089844 378.910156c-28.074219-28.070312-28.074219-73.757812 0-101.832031l-11.3125-11.308594c-34.3125 34.308594-34.3125 90.140625 0 124.453125 17.160156 17.160156 39.6875 25.738282 62.222656 25.738282s45.070312-8.578126 62.222656-25.738282l-11.3125-11.3125c-28.078125 28.082032-73.75 28.066406-101.820312 0zm0 0"/></svg>