<svg height="100px" viewBox="0 0 496 496" width="100px" xmlns="http://www.w3.org/2000/svg"><g fill="#838f9b"><path d="m488 264v32h-144v-32c0-8.800781 7.199219-16 16-16h112c8.800781 0 16 7.199219 16 16zm0 0"/><path d="m488 424v48c0 8.800781-7.199219 16-16 16h-112c-8.800781 0-16-7.199219-16-16v-48zm0 0"/><path d="m152 424v48c0 8.800781-7.199219 16-16 16h-112c-8.800781 0-16-7.199219-16-16v-48zm0 0"/><path d="m152 264v32h-144v-32c0-8.800781 7.199219-16 16-16h112c8.800781 0 16 7.199219 16 16zm0 0"/></g><path d="m488 296v128h-144v-128zm0 0" fill="#69d6f4"/><path d="m152 368v56h-144v-128h144zm0 0" fill="#69d6f4"/><path d="m272 368c0 13.253906-10.746094 24-24 24s-24-10.746094-24-24 10.746094-24 24-24 24 10.746094 24 24zm0 0" fill="#fcd770"/><path d="m363.839844 96.71875-26.320313 4.320312c-5.039062.882813-9.441406 3.519532-12.558593 7.199219-3.121094 3.683594-4.960938 8.402344-4.960938 13.523438 0 8.636719-5.199219 16.316406-13.199219 19.519531-16.160156 6.480469-26.800781 22.160156-26.800781 39.597656v1.441406c0 11.359376 4.480469 22.160157 12.480469 30.160157l18 18c-18.160157 11.121093-39.601563 17.519531-62.480469 17.519531-16.398438 0-32.078125-3.28125-46.398438-9.28125l38.558594-32.160156c4.960938-4.160156 7.839844-10.320313 7.839844-16.796875 0-12-9.761719-21.761719-21.761719-21.761719h-2.957031c-4.722656 0-9.28125-1.519531-13.121094-4.320312l-13.359375-10.078126c-8.320312-6.242187-18.402343-9.601562-28.800781-9.601562h-38.878906c-.722656-5.199219-1.121094-10.558594-1.121094-16 0-31.039062 11.839844-59.359375 31.199219-80.640625l.800781.640625 23.441406 17.601562c5.359375 4 8.558594 10.320313 8.558594 17.039063 0 11.839844 9.519531 21.359375 21.359375 21.359375h8c6.71875 0 13.039063-3.199219 17.039063-8.558594l11.203124-14.882812c4-5.359375 10.320313-8.558594 17.039063-8.558594h22.878906c8.71875 0 16.640625-5.28125 19.839844-13.441406l10.640625-26.558594c21.121094 15.921875 36.800781 38.558594 43.839844 64.71875zm0 0" fill="#69d6f4"/><path d="m320 32-10.640625 26.558594c-3.199219 8.160156-11.121094 13.441406-19.839844 13.441406h-22.878906c-6.71875 0-13.039063 3.199219-17.039063 8.558594l-11.203124 14.882812c-4 5.359375-10.320313 8.558594-17.039063 8.558594h-8c-11.839844 0-21.359375-9.519531-21.359375-21.359375 0-6.71875-3.199219-13.039063-8.558594-17.039063l-23.441406-17.601562-.800781-.640625c21.921875-24.160156 53.601562-39.359375 88.800781-39.359375 27.039062 0 52 8.960938 72 24zm0 0" fill="#b4dd7f"/><path d="m363.839844 96.71875c2.71875 10 4.160156 20.480469 4.160156 31.28125 0 43.359375-23.039062 81.359375-57.519531 102.480469l-18-18c-8-8-12.480469-18.800781-12.480469-30.160157v-1.441406c0-17.4375 10.640625-33.117187 26.800781-39.597656 8-3.203125 13.199219-10.882812 13.199219-19.519531 0-5.121094 1.839844-9.839844 4.960938-13.523438 3.117187-3.679687 7.519531-6.316406 12.558593-7.199219zm0 0" fill="#b4dd7f"/><path d="m226.238281 168c12 0 21.761719 9.761719 21.761719 21.761719 0 6.476562-2.878906 12.636719-7.839844 16.796875l-38.558594 32.160156c-38.480468-16.160156-66.800781-51.839844-72.480468-94.71875h38.878906c10.398438 0 20.480469 3.359375 28.800781 9.601562l13.359375 10.078126c3.839844 2.800781 8.398438 4.320312 13.121094 4.320312zm0 0" fill="#b4dd7f"/><path d="m472 240h-112c-13.230469 0-24 10.769531-24 24v96h-57.136719c-2.910156-11.191406-11.671875-19.953125-22.863281-22.863281v-81.542969c66.847656-4.160156 120-59.722656 120-127.59375 0-70.574219-57.425781-128-128-128s-128 57.425781-128 128c0 67.878906 53.152344 123.433594 120 127.59375v81.542969c-11.191406 2.910156-19.953125 11.671875-22.863281 22.863281h-57.136719v-96c0-13.230469-10.769531-24-24-24h-112c-13.230469 0-24 10.769531-24 24v208c0 13.230469 10.769531 24 24 24h112c13.230469 0 24-10.769531 24-24v-96h57.136719c3.574219 13.761719 15.992187 24 30.863281 24s27.289062-10.238281 30.863281-24h57.136719v96c0 13.230469 10.769531 24 24 24h112c13.230469 0 24-10.769531 24-24v-208c0-13.230469-10.769531-24-24-24zm-448 16h112c4.414062 0 8 3.59375 8 8v24h-128v-24c0-4.40625 3.585938-8 8-8zm120 48v112h-128v-112zm-8 176h-112c-4.414062 0-8-3.59375-8-8v-40h128v40c0 4.40625-3.585938 8-8 8zm175.480469-259.832031-13.34375-13.335938c-6.535157-6.542969-10.136719-15.238281-10.136719-24.496093v-1.472657c0-14.246093 8.542969-26.871093 21.777344-32.160156 11.0625-4.421875 18.222656-14.992187 18.222656-26.917969 0-6.378906 4.566406-11.769531 10.855469-12.824218l18.921875-3.152344c1.445312 7.183594 2.222656 14.597656 2.222656 22.191406 0 38.191406-19.246094 71.945312-48.519531 92.167969zm-1.273438-185.238281-8.269531 20.6875c-2.042969 5.09375-6.898438 8.382812-12.386719 8.382812h-22.886719c-9.183593 0-17.960937 4.390625-23.464843 11.734375l-11.199219 14.929687c-2.503906 3.335938-6.496094 5.335938-10.664062 5.335938h-8c-7.351563 0-13.335938-5.984375-13.335938-13.335938 0-9.183593-4.382812-17.953124-11.734375-23.464843l-16.890625-12.671875c20.058594-18.863282 46.976562-30.527344 76.625-30.527344 23.007812 0 44.398438 6.992188 62.207031 18.929688zm-149.765625 23.429687 18.222656 13.640625c3.34375 2.503906 5.335938 6.496094 5.335938 10.664062 0 16.175782 13.160156 29.335938 29.335938 29.335938h8c9.175781 0 17.953124-4.382812 23.464843-11.734375l11.207031-14.9375c2.496094-3.335937 6.480469-5.328125 10.65625-5.328125h22.886719c12.066407 0 22.761719-7.238281 27.242188-18.441406l6.496093-16.230469c13.40625 12.214844 23.808594 27.609375 30.054688 45.007813l-17.113281 2.847656c-14.046875 2.335937-24.230469 14.367187-24.230469 28.601562 0 5.34375-3.199219 10.078125-8.167969 12.0625-19.335937 7.738282-31.832031 26.191406-31.832031 47.015625v1.472657c0 13.519531 5.265625 26.238281 14.832031 35.808593l10.335938 10.335938c-14.871094 7.304687-31.511719 11.519531-49.167969 11.519531-10.527344 0-20.6875-1.558594-30.351562-4.296875l27.632812-23.023437c6.816406-5.671876 10.71875-14.015626 10.71875-22.886719 0-16.433594-13.367188-29.792969-29.792969-29.792969h-2.941406c-2.960937 0-5.90625-.984375-8.28125-2.761719l-13.382813-10.039062c-9.625-7.214844-21.554687-11.199219-33.601562-11.199219h-31.59375c-.191406-2.65625-.40625-5.296875-.40625-8 0-26.320312 9.183594-50.503906 24.441406-69.640625zm-21.785156 93.640625h29.34375c8.601562 0 17.128906 2.839844 24 8l13.390625 10.039062c5.121094 3.839844 11.472656 5.960938 17.875 5.960938h2.941406c7.609375 0 13.792969 6.183594 13.792969 13.792969 0 4.101562-1.816406 7.96875-4.96875 10.597656l-34.625 28.847656c-30.992188-14.628906-54.238281-42.972656-61.75-77.238281zm109.34375 232c-8.824219 0-16-7.175781-16-16s7.175781-16 16-16 16 7.175781 16 16-7.175781 16-16 16zm112-128h112c4.414062 0 8 3.59375 8 8v24h-128v-24c0-4.40625 3.585938-8 8-8zm120 48v112h-128v-112zm-8 176h-112c-4.414062 0-8-3.59375-8-8v-40h128v40c0 4.40625-3.585938 8-8 8zm0 0"/><path d="m400 448h32v16h-32zm0 0"/><path d="m64 448h32v16h-32zm0 0"/><path d="m424 128c0-17.648438-14.351562-32-32-32v16c8.824219 0 16 7.175781 16 16s-7.175781 16-16 16v16c17.648438 0 32-14.351562 32-32zm0 0"/><path d="m456 128c0-35.289062-28.710938-64-64-64v16c26.472656 0 48 21.527344 48 48s-21.527344 48-48 48v16c35.289062 0 64-28.710938 64-64zm0 0"/><path d="m104 112v-16c-17.648438 0-32 14.351562-32 32s14.351562 32 32 32v-16c-8.824219 0-16-7.175781-16-16s7.175781-16 16-16zm0 0"/><path d="m104 192v-16c-26.472656 0-48-21.527344-48-48s21.527344-48 48-48v-16c-35.289062 0-64 28.710938-64 64s28.710938 64 64 64zm0 0"/></svg>