<?xml version="1.0" encoding="UTF-8"?>
<!DOCTYPE svg PUBLIC "-//W3C//DTD SVG 1.1//EN" "http://www.w3.org/Graphics/SVG/1.1/DTD/svg11.dtd">
<svg xmlns="http://www.w3.org/2000/svg" xml:space="preserve" version="1.1" style="shape-rendering:geometricPrecision; text-rendering:geometricPrecision; image-rendering:optimizeQuality; fill-rule:evenodd; clip-rule:evenodd"
viewBox="0 0 20 20"
xmlns:xlink="http://www.w3.org/1999/xlink">
 <g id="instagram">
  <metadata id="CorelCorpID_0Corel-Layer"/>
  <path class="instagram" fill="#eee" d="M14 0l-8 0c-3,0 -6,3 -6,6l0 8c0,3 3,6 6,6l8 0c3,0 6,-3 6,-6l0 -8c0,-3 -3,-6 -6,-6zm2 5c0,-1 0,-1 -1,-1 -1,0 -1,0 -1,1 0,1 0,1 1,1 1,0 1,0 1,-1zm-6 0c-3,0 -5,2 -5,5 0,3 2,5 5,5 3,0 5,-2 5,-5 0,-3 -2,-5 -5,-5zm0 8c-2,0 -3,-1 -3,-3 0,-2 1,-3 3,-3 2,0 3,1 3,3 0,2 -1,3 -3,3zm8 1c0,2 -2,4 -4,4l-8 0c-2,0 -4,-2 -4,-4l0 -8c0,-2 2,-4 4,-4l8 0c2,0 4,2 4,4l0 8 0 0z"/>
 </g>
</svg>
