<?xml version="1.0" encoding="UTF-8"?>
<!DOCTYPE svg PUBLIC "-//W3C//DTD SVG 1.1//EN" "http://www.w3.org/Graphics/SVG/1.1/DTD/svg11.dtd">
<!-- Creator: CorelDRAW X7 -->
<svg xmlns="http://www.w3.org/2000/svg" xml:space="preserve" width="100%" height="100%" version="1.1" style="shape-rendering:geometricPrecision; text-rendering:geometricPrecision; image-rendering:optimizeQuality; fill-rule:evenodd; clip-rule:evenodd"
viewBox="0 0 4335 4335"
 xmlns:xlink="http://www.w3.org/1999/xlink"
 enable-background="new 0 0 1000 1000">
 <defs>
  <style type="text/css">
   <![CDATA[
    .fil1 {fill:#99CCCC}
    .fil0 {fill:#EEEEEE}
   ]]>
  </style>
 </defs>
 <g id="Слой_x0020_1">
  <metadata id="CorelCorpID_0Corel-Layer"/>
  <g id="facebook.svg">
   <path class="fil0" d="M744 102l-557 0c-56,0 -102,46 -102,102l0 557c0,57 46,102 102,102l275 0 0 -272 -70 0c-10,0 -17,-7 -17,-16l0 -88c0,-9 7,-17 16,-17l71 0 0 -85c0,-98 60,-152 148,-152l72 0c9,0 17,8 17,17l0 74c0,9 -8,17 -17,17l-44 0c-48,0 -57,22 -57,56l0 73 105 0c10,0 17,9 16,19l-10 88c-1,8 -8,14 -17,14l-94 0 0 272 163 0c57,0 103,-45 103,-102l0 -557c0,-56 -46,-102 -103,-102z"/>
   <g>
   </g>
   <g>
   </g>
   <g>
   </g>
   <g>
   </g>
   <g>
   </g>
   <g>
   </g>
   <g>
   </g>
   <g>
   </g>
   <g>
   </g>
   <g>
   </g>
   <g>
   </g>
   <g>
   </g>
   <g>
   </g>
   <g>
   </g>
   <g>
   </g>
  </g>
  <g id="facebook.svg_0">
   <path class="fil1" d="M691 961l-557 0c-56,0 -102,46 -102,103l0 556c0,57 46,103 102,103l275 0 0 -272 -71 0c-9,0 -16,-8 -16,-17l-1 -88c0,-9 8,-17 17,-17l71 0 0 -84c0,-99 60,-152 148,-152l72 0c9,0 16,7 16,16l0 74c0,10 -7,17 -16,17l-45 0c-47,0 -57,23 -57,56l0 73 105 0c10,0 18,9 17,19l-10 88c-1,8 -9,15 -17,15l-94 0 -1 272 164 0c57,0 102,-46 102,-103l0 -556c0,-57 -45,-103 -102,-103z"/>
   <g>
   </g>
   <g>
   </g>
   <g>
   </g>
   <g>
   </g>
   <g>
   </g>
   <g>
   </g>
   <g>
   </g>
   <g>
   </g>
   <g>
   </g>
   <g>
   </g>
   <g>
   </g>
   <g>
   </g>
   <g>
   </g>
   <g>
   </g>
   <g>
   </g>
  </g>
  <g id="ok.svg">
   <g>
    <g>
     <path class="fil0" d="M3851 626c-59,-7 -112,-21 -158,-57 -6,-4 -11,-9 -17,-13 -20,-20 -22,-42 -6,-64 14,-20 36,-25 60,-14 4,3 9,5 13,8 85,58 202,60 287,3 8,-7 17,-12 28,-15 20,-5 39,2 50,20 13,21 13,41 -3,56 -23,25 -52,42 -83,54 -30,12 -63,18 -95,21 5,6 7,8 10,11 44,45 88,88 132,133 15,15 18,33 10,51 -9,19 -29,32 -49,30 -13,-1 -22,-7 -31,-15 -33,-34 -67,-66 -99,-100 -10,-10 -14,-8 -23,0 -33,34 -67,68 -101,102 -15,15 -33,18 -51,9 -19,-9 -31,-28 -30,-48 1,-13 7,-23 16,-32 44,-43 87,-87 130,-130 3,-3 6,-6 10,-10z"/>
     <path class="fil0" d="M3887 475c-105,-1 -192,-88 -191,-194 0,-106 87,-192 193,-192 107,0 192,87 192,195 -1,106 -88,191 -194,191zm96 -193c-1,-53 -42,-95 -95,-95 -52,0 -94,43 -94,96 0,52 42,93 95,93 52,0 94,-42 94,-94z"/>
    </g>
   </g>
   <g>
   </g>
   <g>
   </g>
   <g>
   </g>
   <g>
   </g>
   <g>
   </g>
   <g>
   </g>
   <g>
   </g>
   <g>
   </g>
   <g>
   </g>
   <g>
   </g>
   <g>
   </g>
   <g>
   </g>
   <g>
   </g>
   <g>
   </g>
   <g>
   </g>
  </g>
  <g id="ok.svg_1">
   <g>
    <g>
     <path class="fil1" d="M3798 1485c-59,-6 -113,-21 -158,-56 -6,-5 -12,-9 -17,-14 -20,-19 -22,-41 -6,-64 14,-19 36,-24 60,-13 4,2 9,5 13,7 85,59 202,60 287,3 8,-6 17,-12 28,-14 20,-6 39,2 50,20 13,20 12,40 -3,56 -24,24 -52,41 -83,54 -30,11 -63,17 -95,21 5,5 7,8 10,11 44,44 88,88 132,132 15,15 18,34 9,51 -9,19 -29,32 -48,31 -13,-1 -22,-7 -31,-16 -33,-33 -67,-66 -99,-100 -10,-10 -14,-8 -23,1 -33,34 -67,68 -101,101 -15,15 -33,18 -51,9 -19,-9 -31,-28 -30,-47 1,-13 7,-23 16,-32 43,-44 87,-87 130,-131 3,-3 6,-6 10,-10z"/>
     <path class="fil1" d="M3834 1334c-106,0 -192,-88 -191,-193 0,-107 87,-193 193,-193 107,1 192,88 192,196 -1,105 -88,190 -194,190zm95 -193c0,-52 -41,-94 -94,-94 -52,0 -95,42 -94,95 0,52 42,94 95,93 52,0 94,-42 93,-94z"/>
    </g>
   </g>
   <g>
   </g>
   <g>
   </g>
   <g>
   </g>
   <g>
   </g>
   <g>
   </g>
   <g>
   </g>
   <g>
   </g>
   <g>
   </g>
   <g>
   </g>
   <g>
   </g>
   <g>
   </g>
   <g>
   </g>
   <g>
   </g>
   <g>
   </g>
   <g>
   </g>
  </g>
  <g id="twitter.svg">
   <path class="fil0" d="M4221 2082c-17,7 -34,13 -52,17 20,-19 34,-42 43,-69l0 0c2,-7 -6,-14 -13,-10l0 0c-25,15 -52,26 -80,34 -2,0 -3,0 -5,0 -5,0 -10,-2 -14,-5 -30,-27 -69,-41 -109,-41 -17,0 -35,3 -52,8 -53,16 -94,60 -107,115 -5,20 -6,40 -4,60 0,2 -1,4 -1,5 -2,1 -3,2 -5,2 0,0 0,0 0,0 -117,-11 -222,-67 -297,-159l0 0c-3,-4 -11,-4 -14,2l0 0c-14,25 -22,53 -22,82 0,45 18,87 49,117 -13,-3 -26,-8 -37,-14l0 0c-6,-3 -13,1 -13,7l0 0c-1,66 38,125 96,152 -1,0 -3,0 -4,0 -9,0 -18,-1 -27,-3l0 0c-7,-1 -12,5 -10,11l0 0c19,59 69,102 130,112 -50,34 -109,52 -170,52l-19 0c-6,0 -11,3 -12,9 -2,6 1,12 6,15 69,39 147,61 227,61 69,0 134,-14 193,-41 54,-25 102,-61 142,-107 37,-42 66,-91 87,-145 19,-51 29,-106 29,-159l0 -2c0,-9 4,-17 11,-22 25,-21 47,-45 65,-72l0 0c5,-7 -3,-16 -11,-12l0 0z"/>
   <g>
   </g>
   <g>
   </g>
   <g>
   </g>
   <g>
   </g>
   <g>
   </g>
   <g>
   </g>
   <g>
   </g>
   <g>
   </g>
   <g>
   </g>
   <g>
   </g>
   <g>
   </g>
   <g>
   </g>
   <g>
   </g>
   <g>
   </g>
   <g>
   </g>
  </g>
  <g id="twitter.svg_2">
   <path class="fil1" d="M4221 2928c-17,8 -34,14 -52,18 20,-19 34,-43 43,-69l0 0c2,-7 -6,-14 -13,-10l0 0c-25,15 -52,26 -80,33 -2,1 -3,1 -5,1 -5,0 -10,-2 -14,-5 -30,-27 -69,-42 -109,-42 -17,0 -35,3 -52,9 -53,16 -94,60 -107,114 -5,21 -6,41 -4,61 0,2 -1,4 -1,4 -2,2 -3,2 -5,2 0,0 0,0 0,0 -117,-11 -222,-67 -297,-158l0 0c-3,-4 -11,-4 -14,1l0 0c-14,25 -22,54 -22,83 0,44 18,86 49,117 -13,-3 -26,-8 -37,-15l0 0c-6,-3 -13,1 -13,8l0 0c-1,66 38,125 96,151 -1,0 -3,0 -4,0 -9,0 -18,-1 -27,-2l0 0c-7,-1 -12,5 -10,11l0 0c19,59 69,102 130,112 -50,34 -109,51 -170,51l-19 0c-6,0 -11,4 -12,10 -2,5 1,11 6,14 69,40 147,61 227,61 69,0 134,-14 193,-41 54,-25 102,-61 142,-106 37,-42 66,-91 87,-145 19,-52 29,-107 29,-159l0 -3c0,-8 4,-16 11,-21 25,-21 47,-45 65,-72l0 0c5,-7 -3,-16 -11,-13l0 0z"/>
   <g>
   </g>
   <g>
   </g>
   <g>
   </g>
   <g>
   </g>
   <g>
   </g>
   <g>
   </g>
   <g>
   </g>
   <g>
   </g>
   <g>
   </g>
   <g>
   </g>
   <g>
   </g>
   <g>
   </g>
   <g>
   </g>
   <g>
   </g>
   <g>
   </g>
  </g>
  <g id="vk.svg">
   <g>
    <path class="fil0" d="M2358 2433c0,0 60,59 75,87 1,1 1,1 1,1 6,10 7,18 4,24 -5,10 -22,15 -27,15 0,0 -104,0 -107,0 -8,0 -23,-2 -42,-15 -14,-10 -28,-26 -42,-42 -21,-24 -39,-45 -57,-45 -2,0 -5,0 -7,1 -13,4 -31,24 -31,76 0,16 -13,25 -22,25 0,0 -46,0 -48,0 -17,0 -104,-5 -181,-86 -94,-100 -179,-299 -179,-301 -6,-12 5,-19 17,-19l108 0c15,0 19,8 23,16 3,9 17,45 41,86 37,65 60,92 79,92 3,0 6,-1 9,-2 24,-14 20,-99 19,-117 0,-4 0,-39 -13,-55 -8,-13 -23,-17 -32,-19 2,-3 7,-9 14,-12 16,-8 46,-9 75,-9l17 0c32,0 40,2 52,5 23,6 24,21 22,73 -1,14 -2,31 -2,51 0,4 0,9 0,13 0,27 -1,57 17,69 3,1 6,2 8,2 7,0 26,0 79,-90 23,-40 41,-87 42,-91 2,-2 5,-7 8,-10 3,-2 7,-2 9,-2l127 0c14,0 23,2 25,8 3,8 -1,34 -58,112 -10,13 -19,24 -26,34 -53,69 -53,72 3,125z"/>
   </g>
  </g>
  <g id="vk.svg_3">
   <g>
    <path class="fil1" d="M2358 3279c0,0 60,60 75,88 1,0 1,1 1,1 6,10 7,18 4,24 -5,10 -22,15 -27,15 0,0 -104,0 -107,0 -8,0 -23,-2 -42,-15 -14,-10 -28,-27 -42,-43 -21,-24 -39,-44 -57,-44 -2,0 -5,0 -7,1 -13,4 -31,24 -31,76 0,16 -13,25 -22,25 0,0 -46,0 -48,0 -17,0 -104,-6 -181,-87 -94,-99 -179,-298 -179,-300 -6,-13 5,-20 17,-20l108 0c15,0 19,9 23,17 3,9 17,45 41,85 37,66 60,93 79,93 3,0 6,-1 9,-3 24,-13 20,-99 19,-117 0,-3 0,-38 -13,-55 -8,-12 -23,-17 -32,-18 2,-4 7,-9 14,-12 16,-9 46,-10 75,-10l17 0c32,1 40,3 52,6 23,5 24,21 22,72 -1,15 -2,32 -2,51 0,5 0,9 0,14 0,26 -1,56 17,69 3,1 6,2 8,2 7,0 26,0 79,-91 23,-40 41,-87 42,-90 2,-2 5,-8 8,-10 3,-2 7,-2 9,-2l127 0c14,0 23,2 25,7 3,9 -1,35 -58,113 -10,13 -19,24 -26,34 -53,69 -53,72 3,124z"/>
   </g>
  </g>
 </g>
 <g id="instagram">
  <metadata id="CorelCorpID_1Corel-Layer"/>
  <path id="instagram.svg" class="fil0" d="M2311 186l-304 0c-115,0 -229,115 -229,229l0 305c0,114 114,228 229,228l304 0c115,0 229,-114 229,-228l0 -305c0,-114 -114,-229 -229,-229zm77 191c0,-38 0,-38 -38,-38 -39,0 -39,0 -39,38 0,38 0,38 39,38 38,0 38,0 38,-38zm-229 0c-114,0 -190,76 -190,190 0,115 76,191 190,191 114,0 191,-76 191,-191 0,-114 -77,-190 -191,-190zm0 305c-76,0 -114,-39 -114,-115 0,-76 38,-114 114,-114 76,0 114,38 114,114 0,76 -38,115 -114,115zm305 38c0,76 -76,152 -153,152l-304 0c-77,0 -153,-76 -153,-152l0 -305c0,-76 76,-152 153,-152l304 0c77,0 153,76 153,152l0 305 0 0z"/>
  <path id="instagram.svg_4" class="fil1" d="M2258 1046l-305 0c-114,0 -228,114 -228,228l0 305c0,114 114,229 228,229l305 0c115,0 229,-115 229,-229l0 -305c0,-114 -114,-228 -229,-228zm76 190c0,-38 0,-38 -38,-38 -38,0 -38,0 -38,38 0,38 0,38 38,38 38,0 38,0 38,-38zm-228 0c-114,0 -191,76 -191,191 0,114 77,190 191,190 114,0 190,-76 190,-190 0,-115 -76,-191 -190,-191zm0 305c-76,0 -114,-38 -114,-114 0,-77 38,-115 114,-115 76,0 114,38 114,115 0,76 -38,114 -114,114zm305 38c0,76 -77,152 -153,152l-305 0c-76,0 -152,-76 -152,-152l0 -305c0,-76 76,-152 152,-152l305 0c76,0 153,76 153,152l0 305 0 0z"/>
 </g>
</svg>
