<?xml version="1.0" encoding="UTF-8"?>
<!DOCTYPE svg PUBLIC "-//W3C//DTD SVG 1.1//EN" "http://www.w3.org/Graphics/SVG/1.1/DTD/svg11.dtd">
<!-- Creator: CorelDRAW X7 -->
<svg xmlns="http://www.w3.org/2000/svg" xml:space="preserve" width="100%" height="100%" version="1.1" style="shape-rendering:geometricPrecision; text-rendering:geometricPrecision; image-rendering:optimizeQuality; fill-rule:evenodd; clip-rule:evenodd"
viewBox="0 0 4335 4335"
 xmlns:xlink="http://www.w3.org/1999/xlink">
 <defs>
  <style type="text/css">
   <![CDATA[
    .fil0 {fill:#999999}
   ]]>
  </style>
   <mask id="id0">
  <linearGradient id="id1" gradientUnits="userSpaceOnUse" x1="-12919.4" y1="2273.6" x2="18626.7" y2="1964.25">
   <stop offset="0" style="stop-opacity:0.0470588; stop-color:white"/>
   <stop offset="0.301961" style="stop-opacity:0.501961; stop-color:white"/>
   <stop offset="1" style="stop-opacity:0; stop-color:white"/>
  </linearGradient>
    <rect style="fill:url(#id1)" x="890" y="-4" width="2555" height="4343"/>
   </mask>
 </defs>
 <g id="Слой_x0020_1">
  <metadata id="CorelCorpID_0Corel-Layer"/>
  <path class="fil0" style="mask:url(#id0)" d="M2585 2168l-1622 -1621c-44,-45 -69,-104 -69,-168 0,-64 25,-123 69,-168l142 -142c45,-44 105,-69 168,-69 64,0 123,25 168,69l1931 1931c44,45 69,105 69,168 0,64 -25,124 -69,169l-1929 1929c-45,44 -105,69 -168,69 -64,0 -123,-25 -168,-69l-142 -142c-92,-93 -92,-243 0,-336l1620 -1620 0 0z"/>
 </g>
</svg>
