<?xml version="1.0" encoding="UTF-8"?>
<!DOCTYPE svg PUBLIC "-//W3C//DTD SVG 1.1//EN" "http://www.w3.org/Graphics/SVG/1.1/DTD/svg11.dtd">
<!-- Creator: CorelDRAW X7 -->
<svg xmlns="http://www.w3.org/2000/svg" xml:space="preserve" width="3000px" height="3000px" version="1.1" style="shape-rendering:geometricPrecision; text-rendering:geometricPrecision; image-rendering:optimizeQuality; fill-rule:evenodd; clip-rule:evenodd"
viewBox="0 0 3000 3000"
 xmlns:xlink="http://www.w3.org/1999/xlink">
 <defs>
  <style type="text/css">
   <![CDATA[
    .fil0 {fill:#4E565A}
   ]]>
  </style>
 </defs>
 <g id="Слой_x0020_1">
  <metadata id="CorelCorpID_0Corel-Layer"/>
  <path id="close__icon" class="fil0" d="M2326 620l4 4c57,58 57,151 0,208l-464 464c-57,57 -57,151 0,208l464 464c57,57 57,150 0,208l-4 4c-58,57 -151,57 -208,0l-464 -464c-57,-57 -151,-57 -208,0l-464 464c-57,57 -150,57 -208,0l-4 -4c-57,-58 -57,-151 0,-208l464 -464c57,-57 57,-151 0,-208l-464 -464c-57,-57 -57,-150 0,-208l4 -4c58,-57 151,-57 208,0l464 464c57,57 151,57 208,0l464 -464c57,-57 150,-57 208,0z"/>
 </g>
</svg>
