<svg xmlns="http://www.w3.org/2000/svg" xmlns:xlink="http://www.w3.org/1999/xlink" xml:space="preserve" width="3500px" height="3500px" version="1.1" style="shape-rendering:geometricPrecision; text-rendering:geometricPrecision; image-rendering:optimizeQuality; fill-rule:evenodd; clip-rule:evenodd" viewBox="0 0 3500 3500">
 <defs>
  <style type="text/css">
   <![CDATA[
    .fil0 {fill:#4E565A}
   ]]>
  </style>
 </defs>
 <g id="Слой_x0020_1">
  <metadata id="CorelCorpID_0Corel-Layer"/>
  <path id="GLASS" class="fil0" d="M1000 1204c6,-13 12,-26 21,-35 11,-19 39,-27 59,-15l19 9c12,9 19,18 22,30 4,16 1,29 -8,38 -6,10 -12,16 -17,26 -77,140 -30,314 101,397 19,11 26,39 14,62l-9 16c-5,12 -18,19 -30,22 -12,4 -25,1 -35,-5 -185,-115 -246,-354 -137,-545l0 0zm-224 -343c298,-319 801,-337 1121,-38 300,280 335,742 86,1063l3 -6 65 60c13,12 28,15 44,11l15 -4c16,-3 29,3 41,12l630 586c19,18 20,46 2,65l-120 130c-19,16 -47,17 -66,2l-630 -589c-13,-13 -19,-28 -14,-44l0 -6c3,-16 -1,-31 -14,-43l-61 -58 0 -3c-304,267 -764,264 -1064,-17 -320,-298 -337,-801 -38,-1121l0 0zm161 151c217,-232 580,-245 812,-28 229,214 242,580 28,809 -217,233 -580,245 -812,28 -233,-214 -245,-579 -28,-809z" style="&#10;    fill: #5d5d60;&#10;"/>
 </g>
</svg>
