<?xml version="1.0" encoding="UTF-8"?>
<!DOCTYPE svg PUBLIC "-//W3C//DTD SVG 1.1//EN" "http://www.w3.org/Graphics/SVG/1.1/DTD/svg11.dtd">
<!-- Creator: CorelDRAW X7 -->
<svg xmlns="http://www.w3.org/2000/svg" xml:space="preserve" width="3500px" height="3500px" version="1.1" style="shape-rendering:geometricPrecision; text-rendering:geometricPrecision; image-rendering:optimizeQuality; fill-rule:evenodd; clip-rule:evenodd"
viewBox="0 0 3500 3500"
 xmlns:xlink="http://www.w3.org/1999/xlink">
 <defs>
  <style type="text/css">
   <![CDATA[
    .fil0 {fill:#CC5C48}
   ]]>
  </style>
 </defs>
 <g id="Слой_x0020_1">
  <metadata id="CorelCorpID_0Corel-Layer"/>
  <path id="GLASS" class="fil0" d="M783 1042c8,-19 16,-38 29,-52 17,-29 57,-40 84,-22l27 13c18,13 28,27 33,45 5,23 1,42 -12,56 -8,15 -17,24 -25,38 -109,208 -43,466 144,589 27,18 37,59 21,92l-13 24c-8,19 -26,29 -43,34 -18,5 -36,1 -49,-8 -264,-171 -352,-525 -196,-809l0 0zm-320 -509c426,-474 1141,-500 1597,-57 427,417 476,1102 123,1578l3 -9 93 90c18,17 40,21 63,16l22 -6c22,-5 40,4 58,17l896 870c28,27 29,68 4,97l-172 192c-26,24 -66,25 -94,3l-896 -874c-18,-18 -28,-41 -20,-65l0 -9c3,-23 -2,-46 -20,-64l-88 -85 0 -5c-432,396 -1086,392 -1514,-25 -455,-443 -480,-1189 -55,-1664l0 0zm230 224c309,-345 825,-363 1156,-41 327,318 345,860 40,1200 -309,346 -825,364 -1156,42 -331,-318 -349,-860 -40,-1201z"/>
 </g>
</svg>
