<svg xmlns="http://www.w3.org/2000/svg" xmlns:xlink="http://www.w3.org/1999/xlink" xml:space="preserve" width="3500px" height="3500px" version="1.1" style="shape-rendering:geometricPrecision; text-rendering:geometricPrecision; image-rendering:optimizeQuality; fill-rule:evenodd; clip-rule:evenodd" viewBox="0 0 3500 3500">
 <defs>
  <style type="text/css">
   <![CDATA[
    .fil0 {fill:#2B2A29;fill-rule:nonzero}
   ]]>
  </style>
 </defs>
 <g id="Слой_x0020_1">
  <metadata id="CorelCorpID_0Corel-Layer"/>
  <g id="_1106816256" style="fill: #cc5c48;" class="">
   <path class="fil0" d="M122 1418l110 0c5,0 8,2 8,5 0,2 -1,7 -2,17 -2,11 -4,24 -7,40 -2,17 -4,36 -6,58 -1,23 -2,47 -2,73 0,21 0,41 0,62 1,20 2,38 5,54 3,16 7,28 12,38 6,10 14,15 24,15 10,0 18,-5 24,-15 5,-9 9,-22 12,-38 3,-15 4,-33 5,-53 0,-20 0,-40 0,-61 0,-26 0,-51 -2,-73 -2,-23 -4,-42 -6,-59 -3,-16 -5,-30 -6,-40 -2,-10 -3,-15 -3,-17 0,-4 3,-6 8,-6l110 0c5,0 7,2 7,6 0,2 -2,8 -5,18 -3,10 -7,25 -10,43 -4,19 -7,41 -10,67 -4,26 -5,56 -5,90 0,13 2,33 5,59 3,26 5,56 5,90 0,4 0,9 -1,15 -1,7 -2,13 -3,18 -2,6 -4,11 -6,16 -3,4 -6,6 -10,6l-218 0c-4,0 -7,-2 -9,-6 -3,-5 -5,-10 -7,-16 -1,-5 -2,-11 -3,-18 0,-6 -1,-11 -1,-15 0,-34 2,-64 6,-90 3,-26 5,-46 5,-59 0,-34 -2,-64 -5,-90 -3,-26 -6,-49 -10,-67 -4,-19 -7,-33 -11,-44 -3,-10 -4,-16 -4,-17 0,-4 2,-6 6,-6zm322 0l106 0c5,0 7,4 7,13 0,2 1,8 3,19 2,11 5,24 8,38 3,15 7,31 11,47 5,17 10,33 15,46 5,14 10,26 15,35 5,10 10,14 15,14 4,0 7,-3 8,-9 1,-6 1,-12 1,-17 0,-13 -1,-30 -3,-50 -2,-20 -5,-40 -7,-58 -3,-19 -5,-36 -8,-49 -2,-14 -3,-22 -3,-23 0,-4 2,-6 7,-6l108 0c5,0 7,2 7,6 0,2 -1,6 -3,14 -3,7 -5,19 -8,35 -3,16 -5,36 -7,61 -3,25 -4,56 -4,92 0,34 1,64 4,90 2,27 4,49 7,66 3,18 5,32 8,42 2,9 3,15 3,16 0,4 -2,6 -7,6l-102 0c-1,0 -3,-5 -6,-15 -3,-11 -6,-24 -10,-39 -3,-15 -8,-32 -12,-50 -5,-18 -10,-35 -16,-50 -5,-15 -11,-28 -18,-39 -6,-10 -13,-15 -20,-15 -4,0 -6,4 -6,13 0,8 1,16 1,25 0,8 1,19 3,33 1,14 4,31 7,52 2,20 6,47 11,79 0,4 -2,6 -7,6l-108 0c-6,0 -8,-2 -8,-6 0,-2 1,-8 3,-17 3,-10 5,-23 8,-41 3,-18 6,-40 8,-66 2,-25 4,-55 4,-89 0,-36 -2,-67 -4,-92 -2,-25 -5,-46 -8,-62 -3,-16 -5,-28 -8,-35 -2,-8 -3,-12 -3,-14 0,-4 2,-6 8,-6zm321 0l164 0c6,0 14,3 24,9 66,43 99,116 99,219 0,81 -25,144 -74,191 -6,6 -12,9 -18,9l-186 0c-5,0 -7,-2 -7,-6l0 -3c0,-3 1,-9 3,-19 2,-10 4,-22 6,-37 3,-15 5,-33 7,-53 2,-20 3,-40 3,-63 0,-70 -10,-150 -28,-238l0 -3c0,-4 2,-6 7,-6zm132 91c-8,0 -14,3 -19,9 -5,5 -9,13 -11,22 -3,9 -4,20 -5,32 0,11 -1,23 -1,35l0 30c0,18 0,31 1,42 0,11 0,20 1,28 0,7 1,13 2,18 1,4 1,9 3,13 4,18 14,28 29,28 10,0 19,-5 26,-14 7,-9 13,-20 17,-34 5,-13 8,-27 10,-42 2,-15 3,-28 3,-39 0,-13 -1,-26 -3,-38 -2,-13 -4,-25 -8,-38 -11,-34 -26,-52 -45,-52zm162 -91l190 0c6,0 11,7 16,21 5,15 9,31 12,50 3,19 5,38 7,56 1,19 2,32 2,40 0,5 -2,7 -5,7 -4,0 -6,-2 -7,-7 -17,-56 -39,-84 -67,-84 -10,0 -18,5 -25,14 -7,9 -12,21 -16,35 -4,14 -7,29 -9,45 -1,15 -2,30 -2,42 0,13 1,27 2,43 2,15 5,30 9,44 4,14 9,26 16,35 7,10 15,15 25,15 17,0 30,-7 39,-22 9,-14 16,-31 20,-50 0,-4 1,-9 2,-15 1,-6 2,-12 3,-18 2,-6 3,-11 5,-15 2,-5 4,-7 6,-7 5,0 7,2 7,7 0,5 -1,13 -1,24 -1,12 -2,25 -4,39 -1,14 -3,29 -5,44 -2,16 -4,29 -7,42 -3,12 -6,23 -8,31 -3,8 -7,12 -10,12l-186 0c-5,0 -8,-2 -8,-6 0,-1 1,-5 3,-13 2,-7 4,-18 7,-32 2,-15 4,-33 6,-54 2,-21 3,-46 3,-76 0,-43 -1,-80 -4,-109 -3,-29 -6,-53 -10,-72 -3,-18 -7,-32 -9,-41 -3,-9 -5,-15 -5,-19 0,-4 3,-6 8,-6zm150 125c7,0 12,4 17,11 4,7 8,15 11,25 3,10 5,20 6,31 1,11 2,20 2,27 0,8 -1,17 -2,28 -1,11 -3,21 -6,31 -3,10 -6,18 -11,25 -5,7 -10,11 -17,11 -7,0 -12,-4 -17,-11 -4,-7 -8,-15 -10,-25 -3,-10 -5,-20 -6,-31 -1,-11 -2,-20 -2,-28 0,-7 1,-16 2,-27 1,-10 3,-21 6,-31 2,-9 6,-18 10,-25 5,-7 10,-11 17,-11zm111 -125l218 0c4,0 8,3 11,9 3,7 5,14 7,23 2,8 4,17 5,26 1,9 1,16 1,22 0,10 -1,21 -4,34 -3,12 -7,25 -12,38 -5,13 -10,25 -17,37 -6,12 -13,23 -20,32 12,26 25,55 39,85 4,10 12,25 22,44 11,18 24,41 40,69 2,2 3,3 3,5 0,3 -3,4 -8,4l-117 0c-5,0 -9,-5 -11,-15 -2,-10 -5,-24 -7,-40 -2,-17 -5,-35 -9,-56 -4,-21 -9,-43 -17,-65l-30 7c0,20 1,40 3,59 2,19 5,36 8,51 2,14 5,26 7,36 3,9 4,15 4,17 0,4 -3,6 -7,6l-109 0c-5,0 -8,-2 -8,-6 0,-2 1,-8 4,-18 2,-10 5,-24 8,-42 2,-19 5,-41 7,-66 3,-26 4,-55 4,-87 0,-32 -1,-60 -4,-85 -2,-24 -5,-45 -7,-62 -3,-16 -6,-30 -8,-39 -3,-10 -4,-15 -4,-17 0,-4 3,-6 8,-6zm132 63c-6,0 -11,2 -16,7 -4,4 -8,9 -12,15 -3,6 -6,13 -8,20 -2,7 -2,14 -2,19 0,26 7,39 23,39 6,0 12,-2 16,-7 5,-4 9,-10 12,-16 3,-7 6,-14 8,-21 1,-8 2,-14 2,-20 0,-24 -7,-36 -23,-36zm150 -63l239 0c10,0 16,14 16,41 0,11 -3,24 -10,38 -7,14 -14,27 -22,40 -9,13 -17,24 -25,33 -9,8 -15,13 -18,13 -3,0 -4,-2 -4,-4 0,-4 1,-7 2,-11 1,-3 2,-8 2,-16 0,-17 -5,-32 -13,-45 -9,-12 -22,-19 -40,-19 -7,0 -14,2 -19,6 -6,4 -10,9 -14,16 -3,6 -6,13 -7,21 -2,8 -3,16 -3,24 0,10 1,23 3,42 1,18 3,36 7,54 3,19 7,35 12,48 5,14 11,21 18,21 4,0 7,-2 10,-5 3,-4 6,-8 8,-13 1,-4 3,-10 4,-15 1,-6 1,-10 1,-15 0,-29 -9,-44 -26,-44 -3,0 -4,-1 -4,-3 0,-3 1,-4 4,-4l112 0c5,0 7,2 7,7 0,7 -2,20 -5,40 -4,20 -9,41 -14,63 -5,23 -10,44 -15,64 -6,20 -10,34 -12,42 -3,6 -6,9 -10,9l-121 0c-4,0 -11,-11 -20,-34 -9,-22 -17,-51 -26,-85 -8,-34 -15,-71 -21,-112 -7,-41 -10,-79 -10,-115 0,-27 2,-48 5,-62 3,-13 6,-20 9,-20zm286 0l218 0c4,0 8,3 11,9 3,7 5,14 7,23 2,8 4,17 5,26 1,9 1,16 1,22 0,10 -1,21 -4,34 -3,12 -7,25 -12,38 -5,13 -10,25 -17,37 -6,12 -13,23 -20,32 12,26 25,55 39,85 4,10 12,25 22,44 11,18 24,41 41,69 1,2 2,3 2,5 0,3 -3,4 -8,4l-117 0c-5,0 -9,-5 -11,-15 -2,-10 -5,-24 -7,-40 -2,-17 -5,-35 -9,-56 -4,-21 -9,-43 -17,-65l-30 7c0,20 1,40 3,59 2,19 5,36 8,51 2,14 5,26 7,36 3,9 4,15 4,17 0,4 -3,6 -7,6l-109 0c-5,0 -8,-2 -8,-6 0,-2 1,-8 4,-18 2,-10 5,-24 8,-42 2,-19 5,-41 7,-66 3,-26 4,-55 4,-87 0,-32 -1,-60 -4,-85 -2,-24 -5,-45 -7,-62 -3,-16 -6,-30 -8,-39 -3,-10 -4,-15 -4,-17 0,-4 3,-6 8,-6zm132 63c-6,0 -11,2 -16,7 -4,4 -8,9 -12,15 -3,6 -6,13 -8,20 -2,7 -2,14 -2,19 0,26 7,39 23,39 6,0 12,-2 16,-7 5,-4 9,-10 12,-16 3,-7 6,-14 8,-21 1,-8 2,-14 2,-20 0,-24 -7,-36 -23,-36zm148 -63l245 0c5,0 8,1 9,4 2,4 2,9 2,16 0,31 -1,65 -5,103 -3,37 -7,74 -13,111 -6,37 -12,72 -20,104 -8,33 -17,60 -26,81 -3,6 -8,9 -13,9l-112 0c-9,0 -16,-9 -24,-26 -7,-17 -13,-39 -19,-65 -5,-27 -10,-56 -15,-89 -4,-32 -8,-64 -10,-94 -3,-31 -5,-58 -7,-83 -1,-25 -2,-43 -2,-54 0,-12 3,-17 10,-17zm123 71c-7,0 -12,3 -17,8 -5,6 -8,12 -12,20 -3,8 -5,16 -6,25 -2,8 -2,16 -2,23 0,10 0,24 2,42 1,17 3,34 6,51 3,17 7,32 11,44 5,13 11,19 18,19 7,0 13,-6 17,-19 5,-12 9,-27 12,-44 3,-17 5,-35 7,-52 1,-18 2,-31 2,-41 0,-7 -1,-15 -2,-23 -2,-9 -4,-17 -7,-25 -3,-8 -6,-14 -11,-20 -5,-5 -11,-8 -18,-8zm163 -71l110 0c6,0 8,2 8,5 0,2 -1,7 -2,17 -2,11 -4,24 -6,40 -3,17 -5,36 -7,58 -1,23 -2,47 -2,73 0,21 0,41 0,62 1,20 2,38 5,54 3,16 7,28 13,38 5,10 13,15 23,15 10,0 18,-5 24,-15 5,-9 10,-22 12,-38 3,-15 5,-33 5,-53 0,-20 1,-40 1,-61 0,-26 -1,-51 -3,-73 -2,-23 -4,-42 -6,-59 -2,-16 -5,-30 -6,-40 -2,-10 -3,-15 -3,-17 0,-4 3,-6 8,-6l110 0c5,0 7,2 7,6 0,2 -2,8 -5,18 -3,10 -6,25 -10,43 -4,19 -7,41 -10,67 -3,26 -5,56 -5,90 0,13 2,33 5,59 3,26 5,56 5,90 0,4 0,9 -1,15 0,7 -2,13 -3,18 -2,6 -4,11 -6,16 -3,4 -6,6 -10,6l-218 0c-4,0 -7,-2 -9,-6 -3,-5 -5,-10 -6,-16 -2,-5 -3,-11 -4,-18 0,-6 -1,-11 -1,-15 0,-34 2,-64 6,-90 3,-26 5,-46 5,-59 0,-34 -2,-64 -5,-90 -3,-26 -6,-49 -10,-67 -4,-19 -7,-33 -10,-44 -4,-10 -5,-16 -5,-17 0,-4 2,-6 6,-6zm322 0l106 0c5,0 7,4 7,13 0,2 1,8 3,19 2,11 5,24 8,38 3,15 7,31 12,47 4,17 9,33 14,46 5,14 10,26 15,35 5,10 10,14 15,14 4,0 7,-3 8,-9 1,-6 2,-12 2,-17 0,-13 -2,-30 -4,-50 -2,-20 -5,-40 -7,-58 -3,-19 -5,-36 -8,-49 -2,-14 -3,-22 -3,-23 0,-4 2,-6 7,-6l108 0c5,0 7,2 7,6 0,2 -1,6 -3,14 -2,7 -5,19 -8,35 -2,16 -5,36 -7,61 -3,25 -4,56 -4,92 0,34 1,64 4,90 2,27 5,49 7,66 3,18 6,32 8,42 2,9 3,15 3,16 0,4 -2,6 -7,6l-102 0c-1,0 -3,-5 -6,-15 -3,-11 -6,-24 -10,-39 -3,-15 -7,-32 -12,-50 -5,-18 -10,-35 -16,-50 -5,-15 -11,-28 -18,-39 -6,-10 -13,-15 -20,-15 -4,0 -6,4 -6,13 0,8 1,16 1,25 0,8 1,19 3,33 2,14 4,31 7,52 3,20 7,47 12,79 0,4 -3,6 -7,6l-109 0c-5,0 -8,-2 -8,-6 0,-2 1,-8 4,-17 2,-10 5,-23 7,-41 3,-18 6,-40 8,-66 3,-25 4,-55 4,-89 0,-36 -1,-67 -4,-92 -2,-25 -5,-46 -8,-62 -2,-16 -5,-28 -7,-35 -3,-8 -4,-12 -4,-14 0,-4 3,-6 8,-6zm321 0l164 0c7,0 15,3 24,9 66,43 99,116 99,219 0,81 -24,144 -74,191 -6,6 -12,9 -18,9l-185 0c-5,0 -8,-2 -8,-6l0 -3c0,-3 1,-9 3,-19 2,-10 4,-22 6,-37 3,-15 5,-33 7,-53 2,-20 3,-40 3,-63 0,-70 -10,-150 -28,-238l0 -3c0,-4 2,-6 7,-6zm133 91c-9,0 -15,3 -20,9 -5,5 -9,13 -11,22 -3,9 -4,20 -5,32 0,11 -1,23 -1,35l0 30c0,18 0,31 1,42 0,11 0,20 1,28 0,7 1,13 2,18 1,4 2,9 3,13 4,18 14,28 30,28 10,0 18,-5 25,-14 7,-9 13,-20 17,-34 5,-13 8,-27 10,-42 2,-15 3,-28 3,-39 0,-13 -1,-26 -2,-38 -2,-13 -5,-25 -9,-38 -11,-34 -25,-52 -44,-52zm-3117 428l74 0c1,0 2,1 3,2 1,2 1,4 2,6 0,3 0,6 0,9 1,3 1,6 1,10 0,3 -1,6 -1,10 0,5 0,9 -1,12 0,4 -1,7 -2,10 0,3 -1,4 -2,4 -1,0 -2,-2 -2,-5 0,-4 -1,-8 -1,-12 -1,-4 -2,-8 -3,-12 -2,-4 -4,-5 -8,-5 -2,0 -4,1 -5,4 -2,3 -3,6 -4,11 0,4 -1,9 -1,14 0,6 0,11 0,17 0,8 0,15 1,23 1,8 2,15 3,22 1,6 2,12 2,16 1,4 1,7 1,7 0,2 -1,2 -3,2l-34 0c-2,0 -3,0 -3,-1 0,-1 0,-4 1,-8 1,-4 2,-10 3,-16 1,-7 2,-14 2,-22 1,-8 2,-15 2,-23 0,-6 0,-11 -1,-17 0,-5 0,-10 -1,-15 -1,-4 -2,-8 -3,-10 -2,-3 -4,-4 -6,-4 -4,0 -6,1 -7,5 -2,4 -3,8 -3,12 -1,4 -1,8 -1,12 -1,3 -1,5 -2,5 -1,0 -2,-1 -3,-4 -1,-3 -1,-6 -2,-9 0,-4 -1,-8 -1,-12 0,-4 0,-8 0,-11 0,-7 0,-13 1,-19 0,-5 2,-8 4,-8z" style="&#10;    fill: #cc5c48;&#10;"/>
   <path class="fil0" d="M325 1937l74 0c1,0 3,1 4,4 1,2 2,4 2,7 1,3 1,6 2,9 0,3 0,5 0,7 0,4 0,8 -1,12 -1,4 -3,8 -4,13 -2,4 -4,8 -6,12 -2,4 -4,8 -7,11 4,9 9,19 13,29 2,3 4,8 8,15 4,6 8,14 14,23 0,1 0,1 0,2 0,1 0,1 -2,1l-40 0c-2,0 -3,-1 -4,-5 0,-3 -1,-8 -2,-13 -1,-6 -2,-12 -3,-19 -1,-8 -3,-15 -6,-22l-10 2c0,7 0,14 1,20 1,6 2,12 3,17 1,5 1,9 2,12 1,4 1,6 1,6 0,2 0,2 -2,2l-37 0c-2,0 -2,0 -2,-2 0,0 0,-2 1,-6 1,-3 1,-8 2,-14 1,-6 2,-14 3,-23 1,-8 1,-18 1,-29 0,-11 0,-20 -1,-28 -1,-9 -2,-16 -3,-21 -1,-6 -1,-11 -2,-14 -1,-3 -1,-5 -1,-6 0,-1 0,-2 2,-2zm45 22c-2,0 -4,1 -5,2 -2,1 -3,3 -5,5 -1,2 -2,4 -2,7 -1,2 -1,5 -1,7 0,8 3,13 8,13 2,0 4,-1 5,-3 2,-1 3,-3 4,-5 2,-2 2,-5 3,-7 1,-3 1,-5 1,-7 0,-8 -3,-12 -8,-12zm187 -22l37 0c1,0 2,1 2,2 0,1 0,3 -1,6 -1,3 -2,8 -3,14 0,6 -1,13 -2,21 -1,8 -1,18 -1,28 0,10 0,19 1,27 1,9 2,16 2,23 1,6 2,11 3,15 1,4 1,7 1,7 0,2 -1,2 -2,2l-37 0c-2,0 -3,0 -3,-2 0,0 1,-3 2,-7 0,-4 1,-9 2,-15 1,-7 2,-14 3,-23 1,-8 1,-17 1,-27 0,-10 0,-20 -1,-28 -1,-8 -2,-15 -3,-21 -1,-6 -2,-11 -2,-14 -1,-3 -2,-5 -2,-6 0,-1 1,-2 3,-2zm172 0l71 0c2,0 3,1 4,4 1,2 2,5 3,8 1,3 1,6 1,9 1,3 1,6 1,8 0,15 -4,30 -12,42 -5,8 -10,13 -16,17 -6,4 -13,6 -20,6 0,6 0,13 1,18 1,6 1,11 2,16 1,4 2,8 3,10 1,3 1,5 1,5 0,2 -1,2 -2,2l-37 0c-2,0 -3,0 -3,-2 0,0 1,-2 1,-5 1,-3 2,-7 3,-13 1,-6 2,-13 3,-22 1,-9 1,-20 1,-32 0,-10 0,-20 -1,-28 -1,-8 -2,-15 -3,-21 -1,-6 -2,-11 -3,-14 0,-3 -1,-5 -1,-6 0,-1 1,-2 3,-2zm45 23c-2,0 -4,0 -6,2 -1,1 -3,3 -4,5 -1,2 -2,5 -3,7 0,3 0,5 0,7 0,8 2,11 6,11 2,0 4,0 6,-2 2,-1 3,-3 4,-5 2,-3 2,-5 3,-8 1,-2 1,-4 1,-6 0,-8 -2,-11 -7,-11zm466 -23l80 0c4,0 6,5 6,14 0,4 -1,8 -4,13 -2,5 -4,9 -7,14 -3,4 -6,8 -9,11 -2,3 -4,4 -6,4 0,0 -1,0 -1,-1 0,-1 0,-3 1,-4 0,-1 0,-3 0,-5 0,-6 -1,-11 -4,-15 -3,-5 -8,-7 -13,-7 -3,0 -5,1 -7,2 -2,1 -3,3 -5,5 -1,3 -2,5 -2,8 -1,2 -1,5 -1,8 0,3 0,8 1,14 0,6 1,12 2,18 1,7 3,12 4,17 2,4 4,6 6,6 2,0 3,0 4,-1 1,-1 2,-3 2,-4 1,-2 1,-4 2,-6 0,-1 0,-3 0,-5 0,-10 -3,-15 -9,-15 -1,0 -1,0 -1,-1 0,0 0,-1 1,-1l38 0c2,0 3,1 3,2 0,3 -1,7 -2,14 -1,7 -3,14 -5,21 -1,8 -3,15 -5,22 -2,7 -3,11 -4,14 -1,2 -2,3 -3,3l-41 0c-2,0 -4,-4 -7,-11 -3,-8 -6,-17 -9,-29 -2,-12 -5,-24 -7,-38 -2,-14 -3,-27 -3,-39 0,-9 0,-16 1,-21 1,-4 2,-7 4,-7zm219 0l83 0c2,0 3,1 3,2 1,1 1,3 1,5 0,11 -1,22 -2,35 -1,13 -2,25 -4,38 -2,12 -5,24 -7,35 -3,11 -6,20 -9,27 -1,2 -2,3 -4,3l-38 0c-3,0 -6,-3 -8,-8 -3,-6 -5,-14 -7,-23 -2,-9 -3,-19 -5,-30 -1,-11 -2,-21 -3,-32 -1,-10 -2,-19 -2,-28 -1,-8 -1,-14 -1,-18 0,-4 1,-6 3,-6zm42 25c-2,0 -4,0 -6,2 -2,2 -3,4 -4,7 -1,2 -2,5 -2,8 -1,3 -1,6 -1,8 0,4 0,8 1,14 0,6 1,12 2,18 1,5 2,10 4,15 1,4 3,6 6,6 2,0 4,-2 6,-6 1,-5 3,-10 4,-15 1,-6 1,-12 2,-18 0,-6 1,-11 1,-14 0,-2 -1,-5 -1,-8 -1,-3 -1,-6 -2,-8 -1,-3 -3,-5 -4,-7 -2,-2 -4,-2 -6,-2zm179 -25l67 0c2,0 3,1 3,3 0,1 0,3 0,6 -1,3 -1,6 -1,9 -1,4 -1,7 -1,11 0,3 0,7 0,10 0,16 0,30 2,43 2,13 4,23 6,32 2,9 3,16 5,21 2,5 3,8 3,8 0,2 -1,2 -2,2l-37 0c-2,0 -3,0 -3,-2 0,0 0,-1 1,-3 0,-1 0,-4 1,-6 0,-4 1,-7 1,-9 0,-3 1,-5 1,-7 0,-2 0,-5 0,-7 0,-2 0,-4 0,-7 0,-6 0,-12 0,-18 -1,-6 -1,-13 -2,-19 -2,-19 -6,-28 -11,-28 -2,0 -4,2 -6,7 -1,6 -3,12 -4,19 -1,7 -1,15 -2,22 0,8 0,14 0,18 0,3 0,6 0,9 0,3 0,6 0,9 0,1 1,2 1,4 0,2 1,4 1,6 0,2 1,4 1,6 0,2 1,4 1,4 0,2 -1,2 -3,2l-37 0c-1,0 -2,0 -2,-2 0,0 1,-3 3,-8 1,-5 3,-12 5,-21 2,-9 4,-19 6,-32 1,-13 2,-27 2,-43 0,-3 0,-7 0,-10 0,-4 -1,-8 -1,-11 0,-3 0,-6 -1,-9 0,-3 0,-5 0,-6 0,-2 1,-3 3,-3zm33 72c3,0 4,1 6,3 1,2 2,5 3,8 1,3 1,6 2,9 0,3 0,6 0,9 0,6 0,12 -2,17 -2,8 -5,12 -9,12 -2,0 -3,-1 -5,-4 -1,-2 -2,-4 -3,-7 -1,-3 -2,-6 -2,-10 0,-3 0,-6 0,-8 0,-3 0,-6 0,-9 0,-3 1,-6 2,-9 1,-3 2,-6 3,-8 2,-2 3,-3 5,-3zm482 -72l74 0c1,0 2,1 3,2 1,2 1,4 1,6 1,3 1,6 1,9 0,3 0,6 0,10 0,3 0,6 0,10 0,5 -1,9 -1,12 0,4 -1,7 -2,10 -1,3 -2,4 -3,4 -1,0 -1,-2 -2,-5 0,-4 0,-8 -1,-12 0,-4 -1,-8 -3,-12 -1,-4 -4,-5 -7,-5 -2,0 -4,1 -6,4 -1,3 -2,6 -3,11 -1,4 -1,9 -1,14 0,6 0,11 0,17 0,8 0,15 1,23 0,8 1,15 2,22 1,6 2,12 3,16 1,4 1,7 1,7 0,2 -1,2 -3,2l-34 0c-2,0 -3,0 -3,-1 0,-1 0,-4 1,-8 1,-4 1,-10 2,-16 1,-7 2,-14 3,-22 1,-8 1,-15 1,-23 0,-6 0,-11 0,-17 0,-5 0,-10 -1,-15 -1,-4 -2,-8 -3,-10 -2,-3 -4,-4 -7,-4 -3,0 -5,1 -7,5 -1,4 -2,8 -2,12 -1,4 -1,8 -2,12 0,3 -1,5 -2,5 -1,0 -2,-1 -2,-4 -1,-3 -2,-6 -2,-9 -1,-4 -1,-8 -1,-12 0,-4 0,-8 0,-11 0,-7 0,-13 0,-19 1,-5 2,-8 5,-8zm212 0l74 0c1,0 2,1 3,4 1,2 2,4 3,7 1,3 1,6 1,9 1,3 1,5 1,7 0,4 -1,8 -2,12 -1,4 -2,8 -4,13 -1,4 -3,8 -5,12 -2,4 -5,8 -7,11 4,9 8,19 13,29 2,3 4,8 8,15 3,6 8,14 13,23 1,1 1,1 1,2 0,1 -1,1 -2,1l-40 0c-2,0 -3,-1 -4,-5 -1,-3 -1,-8 -2,-13 -1,-6 -2,-12 -3,-19 -2,-8 -3,-15 -6,-22l-10 2c0,7 0,14 1,20 1,6 1,12 2,17 1,5 2,9 3,12 1,4 1,6 1,6 0,2 -1,2 -2,2l-37 0c-2,0 -3,0 -3,-2 0,0 1,-2 2,-6 0,-3 1,-8 2,-14 1,-6 2,-14 3,-23 1,-8 1,-18 1,-29 0,-11 0,-20 -1,-28 -1,-9 -2,-16 -3,-21 -1,-6 -2,-11 -2,-14 -1,-3 -2,-5 -2,-6 0,-1 1,-2 3,-2zm45 22c-2,0 -4,1 -6,2 -1,1 -3,3 -4,5 -1,2 -2,4 -2,7 -1,2 -1,5 -1,7 0,8 2,13 8,13 2,0 3,-1 5,-3 2,-1 3,-3 4,-5 1,-2 2,-5 3,-7 0,-3 1,-5 1,-7 0,-8 -3,-12 -8,-12zm201 -22l67 0c2,0 3,1 3,3 0,1 0,3 -1,6 0,3 0,6 0,9 -1,4 -1,7 -1,11 0,3 0,7 0,10 0,16 0,30 2,43 2,13 4,23 6,32 2,9 3,16 5,21 2,5 3,8 3,8 0,2 -1,2 -3,2l-36 0c-2,0 -3,0 -3,-2 0,0 0,-1 1,-3 0,-1 0,-4 1,-6 0,-4 1,-7 1,-9 0,-3 1,-5 1,-7 0,-2 0,-5 0,-7 0,-2 0,-4 0,-7 0,-6 0,-12 0,-18 -1,-6 -1,-13 -2,-19 -3,-19 -6,-28 -11,-28 -2,0 -4,2 -6,7 -1,6 -3,12 -4,19 -1,7 -1,15 -2,22 0,8 0,14 0,18 0,3 0,6 0,9 0,3 0,6 0,9 0,1 1,2 1,4 0,2 1,4 1,6 0,2 1,4 1,6 0,2 1,4 1,4 0,2 -1,2 -3,2l-37 0c-1,0 -2,0 -2,-2 0,0 1,-3 3,-8 1,-5 3,-12 5,-21 2,-9 4,-19 6,-32 1,-13 2,-27 2,-43 0,-3 0,-7 0,-10 0,-4 -1,-8 -1,-11 0,-3 0,-6 -1,-9 0,-3 0,-5 0,-6 0,-2 1,-3 3,-3zm33 72c2,0 4,1 6,3 1,2 2,5 3,8 1,3 1,6 2,9 0,3 0,6 0,9 0,6 0,12 -2,17 -2,8 -5,12 -9,12 -2,0 -3,-1 -5,-4 -1,-2 -2,-4 -3,-7 -1,-3 -2,-6 -2,-10 0,-3 0,-6 0,-8 0,-3 0,-6 0,-9 0,-3 1,-6 2,-9 1,-3 2,-6 3,-8 2,-2 3,-3 5,-3zm183 -72l36 0c2,0 3,2 3,5 0,1 0,3 1,6 0,4 1,8 2,13 1,5 3,10 4,16 2,6 3,11 5,16 2,4 3,8 5,12 2,3 4,4 5,4 2,0 3,-1 3,-3 0,-2 1,-4 1,-6 0,-4 -1,-10 -2,-17 0,-6 -1,-13 -2,-19 -1,-7 -2,-12 -3,-17 0,-5 -1,-7 -1,-8 0,-1 1,-2 3,-2l36 0c2,0 3,1 3,2 0,1 -1,3 -2,5 0,3 -1,7 -2,12 -1,5 -2,12 -3,21 0,8 -1,18 -1,31 0,11 1,21 1,30 1,9 2,17 3,23 1,6 2,10 2,14 1,3 2,5 2,5 0,2 -1,2 -3,2l-34 0c-1,0 -1,-2 -2,-5 -1,-3 -2,-8 -4,-13 -1,-5 -2,-11 -4,-17 -1,-6 -3,-12 -5,-17 -2,-5 -4,-9 -6,-13 -2,-3 -5,-5 -7,-5 -1,0 -2,1 -2,4 0,3 0,6 0,9 0,3 1,6 1,11 1,4 1,10 2,17 1,7 3,16 5,27 0,2 -1,2 -3,2l-37 0c-1,0 -2,0 -2,-2 0,0 0,-2 1,-6 1,-3 2,-7 3,-13 1,-7 1,-14 2,-23 1,-8 1,-18 1,-30 0,-12 0,-23 -1,-31 -1,-9 -1,-16 -2,-21 -1,-5 -2,-9 -3,-12 -1,-2 -1,-4 -1,-5 0,-1 1,-2 2,-2zm233 0l70 0c2,0 3,1 4,3 1,2 2,4 3,6 1,2 2,5 2,7 0,3 1,4 1,6 0,12 -7,24 -20,35 0,1 -1,1 -1,1 -2,0 -2,-1 -2,-2 0,-1 0,-2 0,-3 0,-1 0,-2 0,-3 0,-7 -1,-13 -3,-17 -2,-4 -5,-6 -10,-6 -10,0 -15,8 -15,24 0,11 1,23 4,37 4,19 9,28 16,28 3,0 5,-2 7,-5 3,-4 5,-8 7,-13 2,-5 4,-10 5,-16 2,-5 3,-10 5,-14 0,-1 1,-1 2,-1 2,0 2,1 2,2 0,7 -1,20 -4,37 -2,8 -4,15 -5,22 -2,6 -3,11 -4,14 -1,2 -2,3 -3,3l-39 0c-2,0 -4,-1 -4,-3 -15,-41 -22,-82 -22,-122 0,-4 0,-8 0,-11 0,-2 0,-4 1,-6 0,-2 1,-3 3,-3zm212 0l65 0c2,0 4,3 5,8 2,4 3,10 4,16 1,7 2,13 2,19 1,7 1,11 1,14 0,1 0,2 -2,2 -1,0 -2,-1 -2,-2 -5,-19 -13,-28 -22,-28 -4,0 -7,1 -9,4 -2,3 -4,7 -6,12 -1,5 -2,10 -2,15 -1,5 -1,10 -1,15 0,4 0,9 1,14 0,5 1,10 2,15 2,5 4,9 6,12 2,3 5,5 9,5 5,0 10,-3 13,-7 3,-5 5,-11 6,-18 1,-1 1,-2 1,-5 1,-2 1,-4 1,-6 1,-2 1,-3 2,-5 1,-1 1,-2 2,-2 1,0 2,1 2,2 0,2 0,5 0,9 0,3 -1,8 -1,13 -1,4 -1,9 -2,15 -1,5 -2,9 -3,14 0,4 -1,7 -2,10 -1,3 -2,4 -4,4l-63 0c-1,0 -2,0 -2,-2 0,0 0,-2 1,-4 1,-3 1,-6 2,-11 1,-5 2,-11 2,-18 1,-7 1,-16 1,-26 0,-15 0,-27 -1,-37 -1,-10 -2,-18 -4,-24 -1,-6 -2,-11 -3,-14 -1,-3 -1,-5 -1,-7 0,-1 1,-2 2,-2zm51 43c2,0 4,1 6,3 1,3 3,5 4,9 1,3 1,7 2,10 0,4 0,7 0,10 0,2 0,5 0,9 -1,4 -1,7 -2,10 -1,4 -3,7 -4,9 -2,2 -4,4 -6,4 -2,0 -4,-2 -5,-4 -2,-2 -3,-5 -4,-9 -1,-3 -2,-6 -2,-10 0,-4 -1,-7 -1,-9 0,-3 1,-6 1,-10 0,-3 1,-7 2,-10 1,-3 2,-6 4,-9 1,-2 3,-3 5,-3z" style="&#10;    fill: #cc5c48;&#10;"/>
  </g>
 </g>
</svg>
