<svg xmlns="http://www.w3.org/2000/svg" xmlns:xlink="http://www.w3.org/1999/xlink" xml:space="preserve" width="3500px" height="3500px" version="1.1" style="shape-rendering:geometricPrecision; text-rendering:geometricPrecision; image-rendering:optimizeQuality; fill-rule:evenodd; clip-rule:evenodd" viewBox="0 0 3500 3500">
 <defs>
  <style type="text/css">
   <![CDATA[
    .fil0 {fill:#FEFEFE}
    .fil1 {fill:#2B2A29}
    .fil2 {fill:#2B2A29;fill-rule:nonzero}
   ]]>
  </style>
 </defs>
 <g id="Слой_x0020_1">
  <metadata id="CorelCorpID_0Corel-Layer"/>
  <path id="WHITE_CIRCLE" class="fil0" d="M1750 171c872,0 1579,707 1579,1579 0,872 -707,1579 -1579,1579 -872,0 -1579,-707 -1579,-1579 0,-872 707,-1579 1579,-1579z" style="&#10;    fill: #a7a7a7;&#10;"/>
  <path id="CIRCLE" class="fil1" d="M1750 43c952,0 1724,764 1724,1707 0,943 -772,1707 -1724,1707 -952,0 -1724,-764 -1724,-1707 0,-943 772,-1707 1724,-1707zm2 65c916,0 1658,735 1658,1642 0,907 -742,1643 -1658,1643 -917,0 -1659,-736 -1659,-1643 0,-907 742,-1642 1659,-1642z" style="fill: #a7a7a7;"/>
  <g id="ORBITS">
   <path id="ORBIT1" class="fil1" d="M1750 147c885,0 1603,718 1603,1603 0,840 -718,1522 -1603,1522 -885,0 -1603,-682 -1603,-1522 0,-885 718,-1603 1603,-1603zm1603 1603c0,885 -718,1603 -1603,1603 -885,0 -1603,-718 -1603,-1603 0,-840 718,-1522 1603,-1522 885,0 1603,682 1603,1522z" style="&#10;    fill: #000000;&#10;"/>
   <path id="ORBIT2" class="fil1" d="M1750 147c22,0 44,14 65,39l-130 0c21,-25 43,-39 65,-39zm246 2457c-54,403 -144,668 -246,668 -102,0 -192,-265 -246,-668l-5 -2c52,451 145,751 251,751 106,0 199,-300 251,-751l-5 2z" style="&#10;    fill: #000000;&#10;"/>
   <path id="ORBIT3" class="fil1" d="M2883 2883c-75,75 -352,-71 -708,-353 2,-1 3,-2 5,-2 323,247 574,370 646,298 72,-72 -51,-323 -298,-646 0,-2 1,-3 2,-5 282,356 428,633 353,708zm-1911 -1563c-247,-323 -370,-574 -298,-646 72,-72 323,51 646,298 2,0 3,-1 5,-2 -356,-282 -633,-428 -708,-353 -75,75 71,352 353,708 1,-2 2,-3 2,-5z" style="&#10;    fill: #000000;&#10;"/>
   <path id="ORBIT4" class="fil1" d="M2883 617c75,75 -61,344 -342,700 -1,-2 -4,-6 -5,-8 247,-323 362,-563 290,-635 -72,-72 -323,51 -646,298 -2,0 -3,-1 -5,-2 356,-282 633,-428 708,-353zm-1563 1911c-323,247 -574,370 -646,298 -72,-72 51,-323 298,-646 0,-2 -1,-3 -2,-5 -282,356 -428,633 -353,708 75,75 352,-71 708,-353 -2,-1 -3,-2 -5,-2z" style="&#10;    fill: #000000;&#10;"/>
   <path id="ORBIT5" class="fil1" d="M3353 1750c0,106 -300,199 -751,251 1,-2 1,-3 2,-5 403,-54 668,-144 668,-246 0,-102 -265,-192 -668,-246 -1,-2 -1,-3 -2,-5 451,52 751,145 751,251zm-2457 246c-403,-54 -668,-144 -668,-246 0,-102 265,-192 668,-246 1,-2 1,-3 2,-5 -451,52 -751,145 -751,251 0,106 300,199 751,251 -1,-2 -1,-3 -2,-5z" style="&#10;    fill: #000000;&#10;"/>
   <path id="ORBIT6" class="fil1" d="M1750 147c-557,0 -1009,718 -1009,1603 0,840 452,1522 1009,1522 557,0 1009,-682 1009,-1522 0,-885 -452,-1603 -1009,-1603zm-1009 1603c0,885 452,1603 1009,1603 557,0 1009,-718 1009,-1603 0,-840 -452,-1522 -1009,-1522 -557,0 -1009,682 -1009,1522z" style="&#10;    fill: #000000;&#10;"/>
   <path id="ORBIT7" class="fil1" d="M3353 1750c0,-417 -404,-774 -978,-927l0 9c528,158 897,509 897,918 0,557 -682,1009 -1522,1009 -885,0 -1603,-452 -1603,-1009 0,-415 400,-770 970,-924l0 6 10 0c-529,157 -899,508 -899,918 0,557 682,1009 1522,1009 885,0 1603,-452 1603,-1009z" style="&#10;    fill: #000000;&#10;"/>
  </g>
  <g id="SHIVA">
   <path class="fil0" d="M1858 1095l-3 -3 -12 -6 -11 3 -4 -7 -20 -4c-9,-1 -6,1 -9,5 -3,-1 -8,-5 -9,-5 -6,0 -11,8 -40,11l-18 9 -9 -7 -21 5 -7 16 36 -8c2,2 7,6 9,6 8,0 7,-2 9,-8l14 -4c3,2 8,6 9,6 10,0 2,-9 33,-9 11,0 1,1 8,-1l17 3 22 19 9 -6 -3 -15zm-15 -12l9 9 -9 -9zm-265 33l-18 -15 0 6c13,27 28,47 68,47l3 0c55,0 88,-82 56,-106 0,43 -28,80 -65,80l-12 0c-8,0 -26,-9 -32,-12zm-15 6l-3 -3 3 3zm-3 -27l-3 0 1 7 2 -4 0 -3z" style="&#10;    fiLL: #a7a7a7;&#10;"/>
   <path class="fil0" d="M1416 1302l0 -6 9 0 0 6 -9 0zm-27 -6c0,9 13,14 21,14 16,0 20,-6 38,-6l12 0c29,0 41,38 41,68l0 9c0,11 -11,34 -17,38 2,-12 8,-16 8,-32l0 -24c0,-13 -6,-35 -14,-41 0,9 3,11 3,21l0 47c0,17 -6,16 -6,36l9 -6 -18 39 3 2c12,-18 41,-55 41,-80l0 -9c0,-46 -22,-106 -62,-106l-9 0c-16,0 -50,16 -50,30z" style="&#10;    fill: #a7a7a7;&#10;"/>
   <path class="fil1" d="M1660 1243c2,18 33,17 52,18l7 8c15,-11 40,-16 62,-18 -2,-15 -4,-6 -22,-1 -13,3 -22,4 -37,4 6,-20 53,-1 59,-23l-53 9 0 -9c20,0 52,1 54,-16l-53 10 -8 -16 -8 18 -53 -14c2,14 21,18 36,18l17 0 0 11 -53 -14c3,31 53,3 59,28l-59 -13z" style="&#10;    fill: #000000;&#10;"/>
   <path class="fil0" d="M1846 1414c4,8 9,16 9,29l0 6c0,13 -6,32 -18,32 -6,0 -13,-21 -12,-29l4 -28 17 -10zm-3 -72c0,37 -24,70 -24,113 0,13 8,41 21,41 13,0 21,-28 21,-41l0 -3c0,-18 -4,-37 -13,-44l12 -72 -17 6z" style="&#10;    fill: #a7a7a7;&#10;"/>
   <path class="fil0" d="M1581 1440c0,-14 4,-29 9,-38l17 9 4 38c0,11 -9,22 -16,26 -10,-6 -14,-19 -14,-35zm8 -44c-9,15 -14,25 -14,50l0 3c0,13 11,41 20,41 15,0 21,-28 21,-44l0 -12c0,-25 -21,-64 -21,-103l-16 -9 10 74z" style="&#10;    fill: #a7a7a7;&#10;"/>
   <path class="fil1" d="M1581 1440c0,16 4,29 14,35 7,-4 16,-15 16,-26l-4 -38 -17 -9c-5,9 -9,24 -9,38z" style="&#10;    fill: #000000;&#10;"/>
   <path class="fil1" d="M1829 1424l-4 28c-1,8 6,29 12,29 12,0 18,-19 18,-32l0 -6c0,-13 -5,-21 -9,-29l-17 10z" style="&#10;    fill: #000000;&#10;"/>
   <path class="fil0" d="M1593 1083l5 6 12 -5 3 11 24 1 6 -7 9 5 10 2 -11 11c-13,0 -13,-1 -14,12 16,-4 34,-20 38,-37l-15 1c-1,-2 -2,-5 -6,-5 -6,0 -6,2 -11,5 -2,-2 -2,-5 -6,-5 -7,0 -7,2 -12,4l-12 -1c-1,-9 0,-12 -9,-12 -12,0 -10,8 -5,15l-3 2 -3 -3z" style="&#10;    fill: #a7a7a7;&#10;"/>
   <path class="fil1" d="M1672 1299l6 -1 3 1c0,-1 -15,-12 -21,-12 -12,0 -16,4 -20,12l32 0zm-56 0c4,5 26,17 35,17l3 0c22,0 26,-7 42,-9 -8,-10 -24,-26 -42,-26 -15,0 -19,16 -38,18zm142 0c3,-6 8,-12 17,-12 10,0 17,9 21,15l-27 -4 -11 1zm-12 5c6,5 16,15 26,15 18,0 43,-8 50,-17 -16,-2 -32,-21 -41,-21 -19,0 -28,11 -35,23z" style="&#10;    fill: #000000;&#10;"/>
   <path class="fil1" d="M1613 1293c7,-10 10,-21 27,-21l20 0c14,0 29,14 39,21 0,0 3,-6 3,-6 0,-12 -35,-24 -45,-24l-11 0c-17,0 -31,13 -33,30z" style="&#10;    fill: #000000;&#10;"/>
   <path class="fil1" d="M1737 1284c0,11 -1,1 3,9 14,-10 16,-21 41,-21l18 0c17,0 18,12 26,21 -1,-17 -16,-30 -32,-30 -16,0 -56,9 -56,21z" style="&#10;    fill: #000000;&#10;"/>
   <path class="fil1" d="M1737 1419c13,0 24,-1 29,-8l-44 0c-3,-2 -3,-4 -9,-3l-32 0c5,13 38,11 56,11z" style="&#10;    fill: #000000;&#10;"/>
   <path class="fil0" d="M1846 1590l-9 12 0 21 -6 9c0,0 6,2 6,2 5,0 10,-8 11,-11l7 -62c-14,3 -9,11 -9,29z" style="&#10;    fill: #a7a7a7;&#10;"/>
   <path class="fil0" d="M1829 1711l-9 29 2 21 9 0 0 -12c0,-6 3,-6 6,-11 -2,-5 -3,-5 -3,-12 0,-8 1,-6 5,-9l-3 -21 -7 15z" style="&#10;    fill: #a7a7a7;&#10;"/>
   <path class="fil1" d="M1713 1384l-14 -12c2,9 7,21 17,21l9 0c10,0 19,-13 21,-21 -6,4 -12,12 -21,12 -10,0 -6,-36 -6,-47 -9,11 -6,28 -6,47z" style="&#10;    fill: #000000;&#10;"/>
   <path class="fil0" d="M1053 1381l0 24c13,-7 25,-18 27,-35l-12 -4c-3,13 -2,14 -15,15z" style="&#10;    fill: #a7a7a7;&#10;"/>
   <path class="fil1" d="M1702 1434c3,5 3,9 11,9l15 0c5,0 9,-2 9,-6 0,-4 -4,-6 -9,-6l-18 0c-3,0 -8,2 -8,3z" style="&#10;    fill: #000000;&#10;"/>
   <path class="fil1" d="M1896 1870c17,0 21,-9 21,-26l-6 0 0 11c-6,4 -5,6 -12,6l-6 0c-6,0 -5,1 -9,3 4,5 1,6 9,6l3 0z" style="&#10;    fill: #000000;&#10;"/>
   <path class="fil1" d="M1787 2345c8,-2 5,-1 9,-6 -8,-4 2,-3 -9,-3l-6 0 -18 10 14 -1 10 0z" style="&#10;    fill: #000000;&#10;"/>
   <path class="fil1" d="M1734 2177l0 3c0,8 2,7 9,8l0 -11c0,-12 1,-1 -3,-9 -5,3 -6,0 -6,9z" style="&#10;    fill: #000000;&#10;"/>
   <path class="fil1" d="M1560 1098l-2 4 -1 -7 -6 -3 6 18 3 -3 0 -6 18 15 -18 -18zm0 -6l0 3 18 15 -18 -18z" style="&#10;    fill: #000000;&#10;"/>
   <polygon class="fil1" points="1416,1302 1425,1302 1425,1296 1416,1296 " style="&#10;    fill: #000000;&#10;"/>
   <g>
    <path id="FACE_PIECES" class="fil1" d="M2058 2418c0,28 -95,25 -115,27 -62,0 -190,54 -233,53l-3 -33 -3 0c2,-6 3,-6 3,-14 0,-14 -12,-18 -20,-24 38,0 103,4 137,-1 27,-4 35,-2 54,-14 34,-21 180,-21 180,6zm-966 -1066l-4 9 0 0c-4,25 -15,39 -35,50l3 14 12 0c7,0 15,8 15,15l0 9c0,9 -8,14 -18,15 2,72 62,154 62,197l0 15c36,0 83,-47 141,-50 57,-4 63,-39 157,-39l11 -6c-4,-15 -31,-28 -40,-71 -3,-16 -1,-38 -1,-55 0,-28 -9,-44 -9,-50 0,-19 3,-38 7,-53 4,-14 20,-39 5,-39 -8,0 -35,20 -50,21 4,-16 26,-20 41,-24 -3,-5 -6,-5 -6,-11l0 -6c0,-13 40,-33 56,-33l9 0c38,0 68,55 68,89l0 35c0,38 -44,62 -44,100l0 3c0,25 13,53 35,53 23,0 37,-121 42,-150 4,-27 10,-59 13,-83 6,-41 -8,-44 -8,-82l0 -30c0,-26 17,-38 26,-52l-17 -21 -3 -3 -3 -9 3 -3c13,27 28,47 68,47l3 0c55,0 88,-82 56,-106 0,43 -28,80 -65,80l-12 0c-8,0 -26,-9 -32,-12l-18 -18 0 -3 -3 0 -6 -3 1 -9 8 9 0 3 18 15 6 3c0,-34 18,-13 14,-24l12 -5 3 11 24 1 6 -7 9 5 10 2 -11 11c-13,0 -13,-1 -14,12 16,-4 34,-20 38,-37l-15 1c-1,-2 -2,-5 -6,-5 -6,0 -6,2 -11,5 -2,-2 -2,-5 -6,-5 -7,0 -7,2 -12,4l-12 -1c-1,-9 0,-12 -9,-12 -12,0 -10,8 -5,15l-3 2 -3 -3c0,-10 -2,-17 8,-17l6 0c7,0 7,2 12,4l6 -1 0 -15c0,-19 16,-26 29,-32 0,-39 11,-26 21,-38 6,-7 4,-30 29,-30l18 0c18,0 33,4 40,16 14,21 6,13 27,28l4 30c15,8 26,17 28,39l22 16 9 9 3 0 -12 -6 -11 3 -4 -7 -20 -4c-9,-1 -6,1 -9,5 -3,-1 -8,-5 -9,-5 -6,0 -11,8 -40,11l-18 9 -9 -7 -21 5 -7 16 36 -8c2,2 7,6 9,6 8,0 7,-2 9,-8l14 -4c3,2 8,6 9,6 10,0 2,-9 33,-9 11,0 1,1 8,-1l17 3 22 19 9 -6 -3 -15c5,4 6,1 6,9l0 3c0,7 -3,7 -6,12 16,24 38,47 38,88l0 24c0,36 -16,37 -2,84 8,27 11,55 19,82 13,45 24,127 42,161 5,-3 13,-6 21,-6 9,0 18,12 20,21l21 0c61,0 102,44 151,63 37,15 117,70 146,72l0 -12c0,-37 47,-153 62,-171 -1,44 -56,112 -56,177 0,16 6,16 4,34l-10 -22c-56,-5 -120,-77 -173,-77 -44,-29 -62,-56 -136,-56 11,17 23,21 34,43 9,15 19,39 24,55 7,22 9,43 19,62 13,27 10,27 40,39 74,29 167,46 269,46l9 0c36,0 36,-39 42,-70 7,-30 16,-64 20,-95 3,-30 9,-71 14,-101 4,-31 6,-75 12,-102l-17 -3c-6,3 -6,6 -12,6l-9 -1 -24 1 -6 0c-10,0 -4,-6 -16,-9l-25 74 -4 -1 19 -70c-13,-1 -21,-6 -21,-18 0,-14 7,-21 21,-21l12 0 0 -11c-22,-2 -86,-53 -86,-74l0 -9c-56,0 -56,0 -56,-53l3 0c0,16 1,44 15,44 39,0 85,-126 41,-126 -14,0 -40,32 -41,47l21 -21 3 3c0,26 -6,51 -28,56l-11 -3 -3 0 12 -35 0 0c7,-31 47,-73 71,-39 5,-3 5,-5 12,-5l56 27 -3 0 -12 -4 0 12c0,8 -1,5 -6,9l0 -18c-4,-2 -38,-34 -38,-15 0,15 11,27 20,33l18 0c0,0 0,1 -1,1 -11,57 33,48 33,34l-14 -52 3 0 8 14c18,3 75,29 80,29 16,0 20,-6 38,-6 49,0 22,137 -18,137l-26 0 0 20 18 0c8,0 14,10 14,17 0,10 -5,21 -14,21l-18 0 0 12c0,76 -17,144 -29,209 -6,37 -14,66 -20,98 -8,36 -7,70 -51,70l-27 0c-51,0 -85,-10 -127,-17 -33,-6 -93,-27 -116,-27l-7 17c24,45 91,167 91,227l0 12c0,0 -13,51 -14,56 -5,22 -12,35 -19,55 -16,40 -46,56 -64,83l18 0 11 21c14,0 51,-2 62,0 8,2 30,13 46,17 78,17 211,31 211,136 0,106 -199,148 -283,148 -46,0 -75,-11 -113,-17 -63,-11 -164,-37 -223,-37 -43,1 -98,-3 -139,2l-14 20 -20 -3 -13 11 -42 -2 -8 -10c-39,19 -243,43 -306,47 -102,8 -231,-18 -265,-85 -25,-47 -12,-264 -12,-342 0,-119 0,-238 0,-356 -42,-63 -63,-201 -71,-298 -13,0 -20,-5 -20,-18 0,-14 6,-18 17,-20l1 -86 -1 -29c0,-14 17,-53 22,-67 8,-21 24,-36 52,-36l0 -42c-7,2 -7,3 -15,3l-12 0c-32,0 -64,-25 -64,-59l0 -14c0,-51 53,-84 53,-162 11,8 17,49 17,70l0 30c0,25 -38,33 -38,59l0 3c0,15 17,32 32,32l15 0c18,0 -3,-32 -3,-50l1 -26 26 -163c7,10 32,146 32,168l0 36c0,10 -8,20 -9,35l27 0c15,0 29,-15 29,-29l0 -9c0,-26 -38,-34 -38,-59l0 -35c0,-14 12,-54 18,-62 5,70 53,118 53,156l0 32c0,30 -40,47 -71,47l-6 0c-9,0 -12,-2 -18,-6l0 45c23,11 45,16 45,50 4,6 8,7 8,14l0 12c0,9 -5,9 -10,12l-4 24zm0 0l-3 0 0 -21c-9,-13 -14,-18 -36,-18 -15,0 -42,-3 -53,4l-3 -4c-2,-2 26,-9 33,-9l23 0c23,0 36,12 42,12 4,0 8,-2 8,-6 0,-16 -49,-29 -70,-29l-15 0c-10,0 -10,1 -15,6l-3 -3c-2,-3 35,-15 44,-15 19,0 22,9 36,9 11,0 1,1 9,-3 -3,-10 -23,-27 -36,-27l-32 0c-27,0 -47,18 -47,48 -13,18 -18,62 -18,94l0 62c0,9 5,8 12,12 6,-4 8,-9 15,-9 7,0 7,0 12,3l8 -9c11,0 21,2 21,-9l0 -11 -35 5c12,-8 35,-11 35,-35l0 -21c0,-8 -2,-8 -3,-14l26 -9 0 20c13,-1 18,-11 18,-23l0 -3c0,-7 -2,-9 -9,-9l-32 0c-15,0 -21,3 -27,12l-3 -3c-6,-7 20,-15 27,-15l38 0c7,0 7,2 11,6l5 22 14 -10 3 0zm1347 -73c10,6 23,8 23,-7 0,-18 -16,-35 -36,-35l6 20 3 18 4 4zm52 111l-2 -2 -18 -23 -22 -35 -14 -11 -9 -4 -53 -8 -5 2 0 -18 -1 -47 -14 0c-10,6 -17,23 -18,34 -1,15 -6,53 -6,56 0,11 56,62 77,62l6 0c17,0 26,-9 41,-12l1 3 -39 18 -3 20 79 -6 0 -29zm-1338 1023c43,1 103,-24 160,-24 55,0 115,25 159,26 67,2 112,12 176,12l-2 3 23 12 0 15c0,7 4,8 9,11 -1,1 -6,12 -6,12 0,11 2,6 3,18l-2 -2 -10 16c-8,-1 -5,-2 -12,-2 -4,0 -129,30 -159,34 -640,81 -453,-208 -336,-208 14,0 71,46 77,56l-1 -3 -79 24zm1176 -92c62,0 118,26 118,97 0,103 -207,142 -286,142 -46,0 -141,-29 -184,-40 -64,-16 -122,-22 -202,-22 6,-6 72,-24 87,-29 35,-10 129,-20 170,-21 28,-1 27,-12 43,-24 20,-15 71,-29 107,-29l15 -2 97 14 1 -4 -93 -20c12,-50 68,-62 127,-62zm-831 41l6 3 9 -3c14,-1 18,-6 35,-6l15 0c29,0 64,28 91,29l-20 18 3 3c-17,2 -15,9 -24,9l-6 2 -144 -19 0 -9 15 0c7,0 8,5 14,9 -2,-10 -11,-15 -23,-15l-12 0c-2,19 -9,2 -9,-3 0,-11 8,-24 18,-24l3 0c11,0 22,3 29,6zm371 -12l0 15c0,7 5,9 9,15l23 1 7 11c-59,28 -134,29 -221,29 -2,-7 -6,-15 -15,-15l-12 0c-9,0 -12,14 -14,0 -1,-9 5,-11 14,-12 14,-1 41,-2 53,-2 41,-1 59,-9 100,-9l0 -2 -85 -5 -2 -4 14 -10 -14 1 -7 8c-7,-16 7,-21 24,-21l15 3 47 -8 14 0c14,0 22,5 50,5zm-307 -42c9,-4 19,-14 31,-14 22,0 111,22 111,42 0,8 -1,5 -5,9l2 -3 -23 -19 -3 4 0 5 18 4c-4,14 -51,3 -74,3l0 1 83 13 8 0 0 12c0,7 5,9 9,15 -98,0 -137,-44 -206,-44l-2 -5 26 -7c4,-6 8,-8 8,-15l1 -10 28 -13 2 3 -14 19zm405 -93c-2,-15 -18,-25 -27,-56 -4,-16 -12,-56 -12,-74l0 -14c0,-71 36,-111 36,-183 6,5 39,64 56,82 18,18 53,53 53,86 0,13 -44,66 -53,79 -10,16 -39,76 -53,80zm-549 -164c11,-56 76,-105 77,-172l6 0c0,104 38,139 38,218l0 12c0,17 -7,22 -8,38l-18 0c-15,0 -17,9 -28,16l-67 -112zm95 -187l48 28 2 -4c1,8 3,11 7,23 4,17 1,12 3,21l3 23 12 44 33 45 4 -3c0,13 13,35 29,35 1,18 4,18 21,18l6 12 21 0c-5,10 -6,26 8,26l6 0c7,0 12,-4 12,-11l0 -9 30 -3 2 0c10,0 12,-6 12,-15l9 0c11,0 11,-16 26,-27l20 -108 -5 0c8,-6 12,-28 12,-36 0,-21 2,-6 3,-23l15 0c35,0 67,-7 88,-21 2,7 3,7 3,15l0 12c0,45 -20,95 -20,123l-1 74 9 85c-16,4 -20,13 -37,17 -12,2 -33,3 -47,5 -30,4 -63,8 -98,8l-18 0c-15,0 -37,-21 -51,-29 -18,-9 -38,-14 -58,-22 -13,-5 -48,-14 -63,-16 -27,-4 -11,-23 -11,-57 0,-75 -35,-134 -35,-230zm-165 -35l31 15 1 -3c2,7 6,14 15,14 8,0 8,-1 15,-3l8 18 24 0c4,5 7,12 15,12 20,0 30,-29 20,26 -3,18 -12,33 -20,48 -7,13 -45,79 -53,85l-60 -35 -2 3c22,18 38,22 64,47 18,18 32,45 46,67 14,24 24,48 39,73 16,25 33,39 48,63 -5,3 -11,7 -11,15l0 12 -4 -4 -21 21 4 3c-7,-1 -7,-3 -15,-3 -7,0 -11,8 -17,12 -43,-37 -79,-64 -112,-112 -131,-186 -58,-189 -15,-374zm-9 177c-5,5 5,-6 0,0zm642 -121l9 -12c6,4 5,6 12,6l12 0c9,0 10,-5 12,-12l23 0c13,-18 57,-21 59,-50 20,6 94,170 94,215 0,82 -50,166 -93,207 -18,17 -155,132 -169,135 -4,-18 -11,-18 -32,-18l-17 -15 -4 -26c55,-29 99,-99 132,-154 16,-27 37,-61 55,-86 29,-40 27,-52 93,-52 -5,-4 -10,-8 -21,-8l-17 0c-21,0 -40,13 -44,29 -3,-2 -41,-69 -50,-80 -29,-36 -30,-35 -54,-79zm-262 -24c0,-16 26,-31 41,-32l3 15c-5,8 -11,10 -11,23 0,9 2,12 6,18 -4,6 -6,9 -6,18 0,6 1,7 3,11 -5,7 -9,10 -9,21l0 21 -3 0c-8,-32 -24,-60 -24,-95zm-73 0c3,-5 5,-5 5,-11l0 -6c0,-11 -2,-14 -8,-18l7 -14 21 12 25 1c-6,11 -9,21 -9,36l0 3c0,47 32,81 32,100 0,11 -17,4 -26,3l0 9c0,11 13,15 23,15 15,0 19,-6 27,-12l5 7 -12 16 -20 1 -8 6 -20 -11c0,-10 2,-5 2,-16 0,-12 -10,-18 -21,-20l3 -2 -13 -29c0,-3 4,-9 4,-14 0,-20 -1,-45 -17,-56zm162 -26l0 -9c0,-8 -2,-8 -3,-14l14 -4 3 15 -15 88 4 0c-5,3 -9,4 -9,12l1 33c-4,4 -6,2 -7,11l-2 24c-4,22 2,21 -13,44l-3 30 -2 -3 -15 15 2 2c-21,1 -5,6 -24,4 -12,-1 -19,-3 -28,-3 -33,-1 -23,-15 -45,-15l3 -2 -48 -69 -4 3 -25 -104c32,2 24,4 24,21l0 3c0,12 3,16 12,18 -3,10 -6,10 -6,21l0 6c0,10 10,16 21,17l0 12c0,10 10,17 20,18l0 17c0,7 11,18 18,18l12 0c6,0 6,-2 11,-6 5,7 9,12 21,12 15,0 18,-8 24,-18l23 0c6,-8 12,-10 12,-23 0,-9 -3,-12 -6,-18 5,-7 12,-10 12,-18 0,-8 -3,-13 -6,-17 4,-7 9,-10 9,-21 0,-7 -1,-8 -3,-12 4,-6 9,-7 9,-15l0 -5 -2 -33 2 -6c0,-8 -2,-8 -3,-14 5,-4 12,-7 12,-15zm-528 212l0 18c0,9 34,87 41,98 21,37 40,52 59,81 -23,2 -38,20 -38,45 -7,-2 -7,-3 -15,-3l-20 0c-13,0 -20,8 -29,12 -11,5 -28,2 -42,2 -31,2 -50,5 -75,14 -20,8 -13,4 -27,17 -7,7 -20,10 -30,14 -32,17 -29,23 -51,38l0 -575 33 3 248 -24 -3 -2 11 26c-12,18 -62,201 -62,236zm572 -250c61,-30 60,-18 103,-75 17,-23 43,-93 44,-132 30,20 45,58 58,96 6,20 8,42 17,59 15,33 14,16 14,54l-44 27 2 3 -17 0 -11 14c-5,-1 -5,-2 -13,-2 -7,0 -9,4 -15,9 -6,-4 -8,-6 -17,-6l-9 0 15 -62c-44,49 -7,106 -139,106l0 -9c0,-16 3,-12 3,-21 0,-19 3,-11 3,-20 0,-14 2,-24 6,-41zm-16 -101l3 21c-4,3 -5,1 -5,9 0,7 1,7 3,12 -3,5 -6,5 -6,11l0 12 -9 0 -2 -21 9 -29 7 -15zm-126 110c-69,4 -43,-35 -79,-60 1,-6 3,-6 3,-14l0 -3c0,-11 -5,-14 -7,-20l5 -24c21,11 51,29 84,29l62 0 5 21c1,0 -31,39 -33,43 -8,13 -30,28 -40,28zm-144 -95c2,-7 4,-8 1,-14l-2 -15 4 0c2,28 14,58 32,70 -3,6 -6,9 -6,18 0,9 7,14 12,18 -1,6 -3,6 -3,14l0 9c0,7 5,9 9,15 -4,6 -9,8 -9,15l0 9c0,7 8,11 12,17l-4 21 0 3 -27 -15 2 -3c2,-5 3,-4 3,-12 0,-6 -3,-6 -6,-11 1,-4 4,-6 3,-12l-9 -47c2,-2 -1,-7 -3,-9 2,-9 2,-4 3,-12l-1 -27c1,-3 -5,-7 -8,-8l4 -15 -7 -9zm301 -6c0,-38 5,-21 31,-48 10,-9 35,-43 39,-46 0,60 -33,122 -79,132 3,-5 6,-5 6,-11l0 -3c0,-7 -1,-8 -3,-12 3,-5 6,-5 6,-12zm85 -132c7,-5 10,-12 18,-12l3 0c7,0 17,10 17,17l0 12c0,239 -280,192 -280,283 0,24 27,62 27,100 0,3 -9,12 -15,12l-12 0c-8,0 -8,-4 -11,-9 10,3 26,3 26,-12 0,-19 -32,-55 -32,-100l0 -3c0,-59 123,-82 166,-107 67,-40 93,-77 93,-181zm-899 191c1,-32 0,-65 0,-97 0,-66 0,-132 0,-198 8,9 31,93 40,114 21,51 25,53 25,125l3 1 8 -24c23,-1 85,-39 131,-47 60,-10 79,-39 138,-39 11,0 6,2 18,3 -29,43 -59,98 -59,168 -56,5 -304,68 -304,-6zm313 12c4,-6 18,-98 32,-127 18,-36 39,-65 94,-65l36 0c15,0 9,11 9,21l1 27 -1 23 4 47 3 21 -2 3 9 44 -3 3c0,8 1,5 6,9 -3,5 -6,5 -6,12 0,7 5,8 9,11 -3,6 -6,6 -6,12 0,5 10,32 12,38l-14 -6 -3 3 21 26c-39,-8 -75,-73 -83,-111l-6 0c0,18 11,31 11,50l0 3c0,16 -3,19 -11,27 -13,-4 -6,-6 -15,-6l-3 0c-8,0 -8,1 -15,3l2 -5 -27 -10 -29 -19 -15 -10 -2 -9c0,-7 -4,-9 -8,-15zm480 -186c0,-18 -5,-26 9,-29l-7 62c-1,3 -6,11 -11,11 0,0 -6,-2 -6,-2l6 -9 0 -21 9 -12zm82 -35c7,0 15,8 15,15 0,59 -109,138 -177,138l-32 0c-48,0 -87,-18 -111,-42 -17,-16 -57,-68 -57,-96 0,-11 8,-24 18,-24l9 0c12,0 31,63 45,81 12,17 50,49 75,49l36 0c114,0 162,-121 174,-121l5 0zm-209 -59c22,0 46,-12 59,-21 0,31 -1,68 24,74l-2 44c-6,6 -9,8 -10,21l3 0 -3 47c-16,4 -35,9 -53,9l-15 0c-55,0 -86,-72 -106,-112 42,-20 44,-11 44,-80 19,2 34,18 56,18l3 0zm-733 0c10,0 11,-9 20,-9l18 0 0 289c-25,-18 -62,-230 -62,-283 17,-4 8,3 24,3zm442 -180c6,-3 17,-6 26,-6 13,0 18,24 18,39l0 3 -17 120 2 27c0,19 28,45 50,47 -5,21 -18,32 -44,32 -33,0 -59,-56 -59,-94l0 -12c0,-49 24,-89 24,-156zm-375 65c13,-1 12,-2 15,-15l12 4c-2,17 -14,28 -27,35l0 -24zm563 65c0,16 -6,44 -21,44 -9,0 -20,-28 -20,-41l0 -3c0,-25 5,-35 14,-50l-10 -74 16 9c0,39 21,78 21,103l0 12zm244 -110l-12 72c9,7 13,26 13,44l0 3c0,13 -8,41 -21,41 -13,0 -21,-28 -21,-41 0,-43 24,-76 24,-113l17 -6zm-207 -148l149 10c2,2 32,74 32,74l0 53c0,81 -42,159 -121,159 -20,0 -71,-35 -80,-52 -13,-23 -29,-67 -29,-101l0 -15 6 -65 43 -63zm-258 199c0,-23 6,-66 27,-68 0,24 -14,86 -24,97l-4 -26 1 -3zm-6 -91c0,-14 34,-30 50,-30l9 0c40,0 62,60 62,106l0 9c0,25 -29,62 -41,80l-3 -2c10,-22 35,-57 35,-78l0 -9c0,-30 -12,-68 -41,-68l-12 0c-18,0 -22,6 -38,6 -8,0 -21,-5 -21,-14zm204 -180c-4,-5 -6,-5 -6,-12 0,-4 4,-6 8,-6 9,0 6,1 9,6l9 -3 5 7c10,-1 16,-2 16,8 0,10 -18,3 -27,3l-6 -5 -8 2z" style="&#10;    fill: #000000;&#10;"/>
   </g>
  </g>
  <path id="SIOD_NAME" class="fil2" d="M1205 492c44,-32 88,-59 131,-83 5,-3 9,3 12,17 3,14 6,32 8,52 2,21 4,42 4,63 1,21 2,37 2,48 0,5 -2,8 -4,9 -1,0 -4,-3 -7,-9 -3,-6 -6,-12 -10,-19 -4,-7 -7,-14 -11,-21 -3,-7 -6,-12 -8,-14 -16,-22 -31,-30 -42,-24 -12,6 -18,14 -18,25 0,7 2,15 6,23 3,8 8,17 13,25 6,8 12,16 19,24 7,8 13,15 19,21 3,3 6,6 11,9 4,4 9,7 14,11 5,3 9,7 13,10 3,4 5,8 5,11 0,29 -2,57 -4,83 -3,25 -7,50 -12,72 -2,6 -4,9 -7,9 -43,0 -85,0 -127,0 -2,0 -5,-3 -7,-9 -3,-6 -5,-13 -6,-22 -2,-10 -4,-20 -6,-31 -1,-11 -3,-21 -4,-31 -1,-10 -1,-20 -2,-28 -1,-8 -1,-14 -1,-18 0,-3 1,-5 3,-5 5,-2 10,1 14,9 5,8 13,18 25,30 16,17 30,26 42,24 8,-1 12,-6 12,-14 0,-13 -3,-28 -11,-44 -7,-16 -20,-31 -39,-43 -4,-3 -8,-5 -13,-7 -5,-2 -10,-4 -15,-6 -5,-2 -9,-5 -12,-7 -3,-3 -5,-7 -5,-12 0,-22 1,-44 3,-63 2,-19 5,-37 10,-54 1,-6 3,-10 5,-11zm292 -146c28,-7 55,-13 82,-18 3,-1 5,1 5,6 0,2 -1,9 -2,21 -2,11 -4,27 -6,48 -2,21 -4,46 -6,75 -2,29 -2,62 -2,98 0,34 0,65 2,95 2,30 4,56 6,78 2,23 4,41 6,54 1,14 2,22 2,24 0,5 -2,7 -5,7 -27,0 -54,0 -82,0 -4,0 -5,-2 -5,-7 0,-2 0,-9 2,-22 2,-14 4,-31 6,-53 2,-23 4,-48 6,-77 2,-29 3,-60 3,-92 0,-36 -1,-67 -3,-95 -2,-27 -4,-51 -6,-70 -2,-19 -4,-34 -6,-45 -2,-11 -2,-17 -2,-19 0,-4 1,-7 5,-8zm232 -30c61,2 123,8 184,18 4,1 6,3 7,7 1,4 2,10 2,19 0,36 -2,76 -4,119 -1,21 -3,43 -4,64 -2,22 -4,43 -6,64 -4,43 -9,84 -15,122 -6,38 -13,70 -20,94 -2,8 -5,11 -9,11 -28,0 -56,0 -84,0 -7,0 -13,-10 -18,-31 -5,-20 -10,-47 -14,-79 -5,-32 -8,-68 -12,-107 -3,-40 -6,-78 -8,-115 -2,-37 -4,-70 -5,-100 -1,-30 -1,-52 -1,-66 0,-13 2,-20 7,-20zm93 90c-5,0 -10,3 -13,9 -4,6 -7,14 -9,23 -2,9 -4,19 -5,29 -1,11 -1,20 -1,29 0,12 0,29 1,50 1,21 3,42 5,62 2,20 5,38 9,54 3,15 7,23 13,23 5,0 9,-8 13,-23 3,-14 6,-32 8,-52 3,-21 4,-41 5,-62 1,-21 2,-37 2,-49 0,-8 -1,-17 -2,-28 -1,-10 -2,-20 -4,-30 -2,-9 -5,-17 -9,-24 -4,-7 -8,-10 -13,-11zm243 -24c41,19 82,40 123,65 5,3 11,10 18,19 25,35 43,71 56,108 12,35 19,72 19,111 0,30 -5,56 -15,78 -9,24 -23,45 -41,64 -5,5 -9,7 -13,7 -47,0 -93,0 -140,0 -4,0 -6,-2 -6,-6 0,-1 0,-2 0,-3 0,-3 1,-9 3,-20 1,-10 3,-23 4,-39 2,-16 4,-34 5,-54 2,-21 2,-42 2,-66 0,-36 -2,-76 -5,-119 -3,-42 -9,-88 -16,-138 0,-1 0,-2 0,-2 0,-5 2,-7 6,-5zm99 136c-6,-2 -11,-2 -14,2 -4,4 -7,10 -9,18 -2,8 -3,18 -3,29 -1,11 -1,23 -1,34 0,10 0,20 0,30 0,17 0,30 0,41 1,11 1,20 1,27 1,7 1,13 2,18 0,4 1,9 2,12 4,19 11,29 22,30 8,1 14,-3 20,-10 5,-8 9,-17 12,-29 4,-11 6,-23 8,-35 1,-13 2,-24 2,-34 0,-11 -1,-23 -2,-34 -1,-12 -4,-24 -6,-36 -8,-35 -19,-56 -34,-63z" style="&#10;    fill: #000000;&#10;"/>
 </g>
</svg>