<?xml version="1.0" encoding="UTF-8"?>
<!DOCTYPE svg PUBLIC "-//W3C//DTD SVG 1.1//EN" "http://www.w3.org/Graphics/SVG/1.1/DTD/svg11.dtd">
<!-- Creator: CorelDRAW X7 -->
<svg xmlns="http://www.w3.org/2000/svg" xml:space="preserve" width="500px" height="500px" version="1.1" style="shape-rendering:geometricPrecision; text-rendering:geometricPrecision; image-rendering:optimizeQuality; fill-rule:evenodd; clip-rule:evenodd"
viewBox="0 0 500 500"
 xmlns:xlink="http://www.w3.org/1999/xlink">
 <defs>
  <style type="text/css">
   <![CDATA[
    .fil0 {fill:#97A59A}
   ]]>
  </style>
 </defs>
 <g id="Слой_x0020_1">
  <metadata id="CorelCorpID_0Corel-Layer"/>
  <path class="fil0" d="M74 73c23,-21 47,-37 70,-49 -12,30 -22,60 -30,90 -30,8 -60,17 -90,30 13,-24 29,-47 50,-71zm131 326c30,1 60,1 90,0 -2,33 -6,66 -10,99 -23,2 -47,2 -70,0 -4,-33 -8,-66 -10,-99zm193 -194c33,2 66,6 99,10 3,23 3,47 0,70 -33,5 -66,8 -99,10 2,-30 2,-60 0,-90zm-284 -91c30,-6 61,-10 91,-12 -2,33 -4,66 -5,99 -33,0 -66,2 -98,4 2,-30 6,-61 12,-91zm-12 181c32,2 65,4 98,5 1,33 3,66 5,99 -30,-3 -61,-7 -91,-13 -5,-30 -10,-60 -12,-91zm193 -193c30,2 60,6 91,12 5,30 10,61 12,91 -33,-2 -66,-4 -99,-4 0,-33 -2,-66 -4,-99zm-95 99c33,-1 66,-1 99,0 1,33 1,66 0,99 -33,0 -66,0 -99,0 0,-33 0,-66 0,-99zm99 99c33,-1 66,-3 99,-5 -2,31 -7,61 -13,91 -30,6 -60,10 -90,13 2,-33 3,-66 4,-99zm-296 -85c33,-4 65,-8 99,-10 -2,30 -2,60 -1,90 -33,-2 -66,-5 -98,-10 -3,-23 -3,-47 0,-70zm212 -213c23,-2 47,-2 70,1 4,33 8,66 10,99 -30,-2 -60,-2 -90,0 2,-33 6,-66 10,-100zm170 384c31,-8 61,-17 91,-30 -13,24 -29,48 -50,71 -24,21 -47,37 -71,50 13,-31 23,-61 30,-91z"/>
 </g>
</svg>
