<?xml version="1.0" encoding="UTF-8"?>
<!DOCTYPE svg PUBLIC "-//W3C//DTD SVG 1.1//EN" "http://www.w3.org/Graphics/SVG/1.1/DTD/svg11.dtd">
<!-- Creator: CorelDRAW X7 -->
<svg xmlns="http://www.w3.org/2000/svg" xml:space="preserve" width="100%" height="100%" version="1.1" style="shape-rendering:geometricPrecision; text-rendering:geometricPrecision; image-rendering:optimizeQuality; fill-rule:evenodd; clip-rule:evenodd"
viewBox="0 0 4335 4335"
 xmlns:xlink="http://www.w3.org/1999/xlink">
 <defs>
  <style type="text/css">
   <![CDATA[
    .fil0 {fill:url(#id0)}
   ]]>
  </style>
  <linearGradient id="id0" gradientUnits="userSpaceOnUse" x1="1168.52" y1="132.32" x2="1032.82" y2="3796.19">
   <stop offset="0" style="stop-opacity:1; stop-color:#64689C"/>
   <stop offset="1" style="stop-opacity:1; stop-color:#FF6633"/>
  </linearGradient>
 </defs>
 <g id="layer">
  <metadata id="CorelCorpID_0Corel-Layer"/>
  <path id="logo" class="fil0" d="M1356 1075l126 1615c2,25 18,45 42,53l664 210c12,4 25,4 36,0l665 -210c23,-8 39,-28 41,-53l127 -1615c2,-35 -25,-65 -60,-65l-1582 0c-34,0 -62,30 -59,65l0 0zm-793 62l-14 -381c-15,-6 -25,-17 -31,-33l-391 -15 391 -13c7,-15 18,-26 31,-32l13 -383 14 383c11,6 22,16 31,32l384 13 -386 15c-3,15 -13,26 -29,33l-13 381zm3072 2163l-19 -510c-20,-8 -34,-22 -41,-44l-525 -20 524 -17c10,-21 24,-35 42,-43l18 -513 18 513c15,7 29,21 42,43l514 17 -516 20c-5,20 -18,35 -40,44l-17 510zm-2928 607c-91,-22 -162,-38 -211,-48 -49,-10 -83,-15 -101,-14 -17,0 -29,3 -37,9 -7,6 -10,15 -10,28 1,26 18,46 52,62 34,16 78,23 132,22 37,-1 70,-6 99,-16 29,-10 54,-24 76,-43zm116 20c-36,41 -78,72 -127,93 -49,22 -103,33 -162,35 -87,2 -156,-13 -208,-44 -51,-32 -78,-74 -79,-127 -1,-41 10,-71 34,-92 24,-20 61,-31 110,-33 40,-1 127,15 259,48 47,12 83,20 110,27 12,-17 21,-37 28,-58 7,-21 10,-42 10,-60 -1,-30 -9,-56 -25,-76 -15,-21 -52,-47 -108,-78 -67,-35 -112,-68 -136,-99 -24,-31 -36,-69 -37,-114 -2,-79 27,-145 86,-197 59,-52 137,-79 232,-81 60,-1 111,10 150,35 39,25 60,57 61,97 0,21 -6,38 -17,51 -13,13 -29,19 -50,20l-8 0c-5,-36 -20,-63 -44,-80 -25,-18 -60,-26 -105,-25 -55,2 -100,16 -133,44 -34,27 -50,62 -49,105 1,48 41,92 118,133 10,5 18,9 22,11 58,31 101,65 128,102 27,38 41,81 42,130 1,29 -3,57 -11,83 -8,26 -21,51 -39,76 11,2 23,5 35,7 12,2 25,4 40,6l-20 75c-23,-1 -44,-3 -61,-5 -17,-3 -32,-5 -46,-9zm107 14l19 -75c42,-5 74,-20 96,-45 23,-24 43,-68 59,-132l42 -167 -54 2c-8,0 -13,-1 -16,-3 -3,-2 -5,-6 -5,-11 0,0 0,-1 0,-3 0,-1 1,-3 2,-6l8 -27c2,-7 6,-12 11,-15 6,-3 16,-4 32,-5l41 -1 51 -181c2,-10 6,-23 9,-41 11,-48 33,-73 67,-74 25,0 44,2 58,8 14,6 21,14 21,26 0,7 -3,21 -11,43 -5,11 -8,20 -10,27l-59 189 93 -2c7,0 13,1 16,3 4,2 6,5 6,9 0,2 0,4 0,6 0,1 0,2 -1,4l-9 27c-2,7 -6,12 -11,15 -6,3 -17,5 -32,5l-81 2 -50 181c-6,21 -11,38 -13,53 -3,15 -4,27 -4,36 1,21 11,37 31,49 21,11 51,17 91,19l-20 75 -14 1c-49,1 -90,-4 -124,-15 -34,-11 -58,-27 -74,-49 -23,21 -49,38 -77,50 -29,13 -58,20 -88,22zm377 -9l20 -75c22,-2 43,-6 63,-13 20,-6 40,-15 59,-26 0,-3 -1,-6 -1,-9 0,-2 -1,-6 -1,-12 -1,-37 17,-112 53,-226 7,-22 12,-38 16,-50 3,-10 8,-24 13,-42 18,-60 37,-90 55,-90 26,-1 50,3 75,12 25,9 37,19 37,30 0,4 -8,25 -25,62 -16,38 -31,74 -45,108 -21,57 -37,100 -45,129 -9,30 -13,51 -13,65 0,12 4,20 9,26 6,6 15,9 25,8 26,0 54,-21 86,-63 31,-42 61,-98 88,-167 16,-38 30,-83 43,-134 14,-53 34,-79 60,-80 24,-1 46,3 65,11 18,7 28,17 28,28 0,4 -8,25 -24,63 -16,39 -30,75 -43,108 -17,48 -29,87 -37,120 -8,32 -12,58 -11,78 0,18 5,31 15,38 11,7 30,11 58,11l-19 76 -11 0c-53,1 -90,-4 -110,-16 -21,-12 -32,-33 -33,-65 0,-12 2,-28 5,-47 4,-18 10,-43 18,-73 -52,83 -95,138 -127,166 -31,28 -65,43 -101,43 -23,1 -43,-3 -59,-10 -16,-8 -27,-20 -34,-36 -21,15 -44,27 -68,35 -23,8 -52,14 -84,17zm605 -14l20 -76c20,-2 38,-4 54,-9 16,-4 30,-10 43,-18 -2,-9 -4,-17 -5,-26 -1,-10 -2,-20 -2,-31 -1,-43 6,-85 21,-128 16,-43 38,-82 67,-117 35,-44 73,-77 114,-100 40,-23 82,-35 126,-36 18,0 34,1 50,5 16,4 33,10 51,19l81 -243c2,-7 6,-17 10,-30 19,-61 47,-92 84,-93 29,0 51,2 63,8 13,5 20,15 20,29 0,7 -5,22 -15,45 -7,14 -12,26 -15,34l-95 234c-35,86 -63,166 -84,241 -22,76 -32,124 -32,146 1,20 7,34 18,42 12,8 34,12 66,14l-19 75 -10 0c-59,1 -100,-4 -124,-15 -24,-12 -36,-33 -37,-62 0,-13 2,-29 6,-48 4,-19 11,-43 20,-73 -36,69 -74,121 -112,156 -38,34 -79,52 -122,53 -21,1 -40,-2 -57,-9 -17,-7 -30,-16 -38,-28 -15,11 -34,20 -58,27 -24,6 -54,11 -89,14zm511 -438c-6,-3 -13,-5 -19,-6 -7,-2 -13,-2 -19,-2 -27,1 -54,10 -80,29 -27,18 -54,45 -81,81 -23,31 -41,63 -55,98 -14,35 -21,63 -20,85 0,17 4,30 13,40 8,9 19,14 32,14 33,-1 69,-31 108,-89 40,-59 80,-142 121,-250zm381 243c38,-26 70,-61 95,-105 25,-43 38,-81 37,-112 -1,-16 -5,-29 -13,-37 -8,-8 -19,-12 -34,-11 -31,0 -58,19 -81,56 -22,37 -33,79 -32,127 0,18 3,34 7,47 5,13 12,24 21,35zm-54 119c-36,18 -72,32 -107,42 -36,10 -73,16 -109,19l20 -76c26,-2 49,-6 71,-12 21,-6 42,-13 62,-23 -14,-18 -25,-39 -32,-63 -7,-23 -12,-51 -12,-83 -2,-74 22,-139 71,-195 49,-56 109,-85 178,-87 38,-1 69,10 92,33 23,22 35,54 36,94 1,43 -14,92 -45,146 -31,53 -72,101 -125,143 16,14 33,24 52,30 18,5 41,8 68,7l7 0 -20 76 -15 0c-41,1 -78,-3 -109,-11 -32,-8 -60,-22 -83,-40zm336 -7c-15,17 -34,30 -55,40 -22,10 -46,15 -74,18l20 -76c39,-3 71,-22 97,-57 27,-36 50,-93 70,-172 10,-37 20,-82 30,-134 13,-69 36,-104 68,-105 30,-1 50,0 63,3 12,3 18,9 18,18 1,6 -10,38 -32,96 -22,57 -41,113 -57,167 56,-95 107,-165 154,-209 47,-45 93,-67 139,-68 24,-1 42,5 55,17 14,12 21,29 21,51 1,26 -19,92 -60,200l-13 35c-8,23 -15,44 -20,64 -5,19 -7,33 -7,41 0,14 6,23 16,29 11,5 31,8 62,9l-19 76 -13 0c-61,2 -106,-5 -135,-21 -28,-16 -43,-41 -44,-76 0,-16 4,-40 14,-73 10,-34 26,-76 46,-128l4 -11c18,-43 27,-68 27,-76 0,-6 -2,-11 -5,-14 -3,-3 -8,-4 -15,-4 -22,1 -55,29 -99,86 -45,57 -83,125 -116,205 -7,17 -14,36 -21,59 -15,43 -45,65 -90,66 -15,0 -25,-1 -31,-3 -6,-3 -9,-8 -9,-15 -1,-4 0,-9 2,-15 2,-6 5,-14 9,-23zm476 43l20 -76c41,-5 73,-19 96,-44 23,-24 42,-69 58,-133l43 -166 -54 1c-8,0 -14,0 -17,-2 -3,-2 -4,-6 -4,-11 0,-1 0,-2 0,-3 0,-1 1,-3 2,-7l8 -26c2,-8 6,-13 11,-15 5,-3 16,-5 32,-5l41 -1 50 -182c3,-9 6,-23 10,-40 10,-48 33,-73 67,-74 25,-1 44,2 58,8 14,6 21,14 21,25 0,8 -4,22 -12,43 -4,12 -7,21 -9,27l-60 190 94 -2c7,0 12,0 16,2 4,2 6,6 6,10 0,2 0,4 0,5 0,2 -1,3 -1,5l-9 27c-2,7 -6,12 -12,15 -6,3 -16,5 -31,5l-82 2 -50 181c-6,20 -10,38 -13,52 -2,15 -3,27 -3,36 0,22 11,38 31,49 21,12 51,18 90,19l-20 76 -13 0c-49,1 -91,-3 -124,-14 -34,-11 -59,-27 -74,-50 -23,22 -49,38 -78,51 -28,12 -58,20 -88,22zm-2086 -3378l213 0 0 -170c0,-8 7,-14 15,-14l62 0c7,0 14,6 14,14l0 446c0,7 -7,13 -14,13l-62 0c-8,0 -15,-6 -15,-13l0 -197 -213 0 0 197c0,7 -6,13 -14,13l-62 0c-8,0 -15,-6 -15,-13l0 -446c0,-8 7,-14 15,-14l62 0c8,0 14,6 14,14l0 170zm498 -104l-140 0c-8,0 -15,-7 -15,-14l0 -52c0,-8 7,-14 15,-14l370 0c8,0 14,6 14,14l0 52c0,7 -6,14 -14,14l-140 0 0 380c0,7 -6,13 -14,13l-62 0c-8,0 -14,-6 -14,-13l0 -380 0 0zm519 271c4,-11 7,-21 11,-32l113 -310c2,-5 7,-9 13,-9l83 0c8,0 14,6 14,14l0 446c0,7 -6,13 -14,13l-59 0c-8,0 -15,-6 -15,-13l0 -293 -108 297c-3,6 -8,9 -14,9l-56 0c-6,0 -11,-3 -13,-9l-107 -302 0 298c0,7 -7,13 -15,13l-59 0c-8,0 -14,-6 -14,-13l0 -446c0,-8 6,-14 14,-14l93 0c6,0 11,4 13,9l111 316c3,9 6,17 9,26zm393 43l216 0c8,0 14,6 14,13l0 53c0,7 -6,13 -14,13l-292 0c-8,0 -14,-6 -14,-13l0 -446c0,-8 6,-14 14,-14l62 0c8,0 14,6 14,14l0 380 0 0zm-153 866l-823 0 25 229 780 0 -51 653 -458 145 -457 -145 -27 -341 240 0 0 167 251 67 249 -67 19 -266 -767 0 -51 -652 1086 0 -16 210 0 0z"/>
 </g>
</svg>
