<?xml version="1.0" encoding="UTF-8"?>
<!DOCTYPE svg PUBLIC "-//W3C//DTD SVG 1.1//EN" "http://www.w3.org/Graphics/SVG/1.1/DTD/svg11.dtd">
<!-- Creator: CorelDRAW X7 -->
<svg xmlns="http://www.w3.org/2000/svg" xml:space="preserve" width="100%" height="100%" version="1.1" style="shape-rendering:geometricPrecision; text-rendering:geometricPrecision; image-rendering:optimizeQuality; fill-rule:evenodd; clip-rule:evenodd"
viewBox="0 0 4335 4335"
 xmlns:xlink="http://www.w3.org/1999/xlink">
 <defs>
  <style type="text/css">
   <![CDATA[
    .fil0 {fill:#fff}
   ]]>
  </style>
 </defs>
 <g id="search">
  <metadata id="CorelCorpID_0Corel-Layer"/>
  <path id="GLASS" class="fil0" d="M874 1259c11,-25 23,-50 40,-67 21,-36 74,-52 112,-29l37 17c22,18 36,35 41,58 8,30 2,55 -15,72 -11,19 -23,30 -32,50 -147,266 -57,598 192,756 36,21 50,74 27,118l-17 30c-10,23 -35,36 -57,42 -23,8 -48,2 -67,-9 -352,-219 -469,-675 -261,-1038l0 0 0 0zm-427 -654c568,-607 1526,-642 2135,-72 572,533 638,1413 164,2025l6 -12 124 114c24,23 53,29 83,21l29 -7c31,-6 55,5 78,23l1200 1116c36,34 38,87 4,123l-229 248c-36,30 -89,32 -125,4l-1200 -1122c-25,-25 -36,-53 -27,-84l0 -11c6,-31 -2,-59 -27,-82l-116 -111 0 -5c-579,508 -1455,503 -2026,-33 -610,-567 -642,-1525 -73,-2135l0 0 0 0zm307 288c413,-442 1105,-467 1546,-53 437,407 461,1104 54,1540 -413,444 -1105,467 -1547,54 -443,-408 -466,-1103 -53,-1541z"/>
 </g>
</svg>
